<svg width="12" height="12" viewBox="0 0 12 12" fill="none" xmlns="http://www.w3.org/2000/svg">
<g clip-path="url(#clip0_148_2)">
<path d="M6.90515 3.2251L6.89315 0H5.09479L5.10679 3.2251L6.00595 4.46003L6.90515 3.2251ZM5.10679 8.75216V11.9893H6.90515V8.75216L6.00595 7.51728L5.10679 8.75216Z" fill="#1F2937" fill-opacity="0.56"/>
<path d="M6.90519 8.75217L8.79951 11.3658L10.2502 10.3108L8.35589 7.69715L6.90519 7.22952V8.75217ZM5.10683 3.22512L3.20051 0.61145L1.74982 1.66652L3.64414 4.28018L5.10683 4.74776V3.22512Z" fill="#1F2937"/>
<path d="M3.64415 4.28018L0.574863 3.28506L0.0233765 4.98752L3.09262 5.99464L4.54331 5.51506L3.64415 4.28018ZM7.45675 6.46222L8.35591 7.69714L11.4252 8.69221L11.9767 6.98975L8.90744 5.99464L7.45675 6.46222Z" fill="#1F2937"/>
<path d="M8.90744 5.99464L11.9767 4.98752L11.4252 3.28506L8.35591 4.28018L7.45675 5.51506L8.90744 5.99464ZM3.09262 5.99464L0.0233765 6.98975L0.574863 8.69221L3.64415 7.69714L4.54331 6.46222L3.09262 5.99464Z" fill="#1F2937"/>
<path d="M3.64414 7.69715L1.74982 10.3108L3.20051 11.3658L5.10683 8.75217V7.22952L3.64414 7.69715ZM8.35589 4.28018L10.2502 1.66652L8.79951 0.61145L6.90519 3.22512V4.74776L8.35589 4.28018Z" fill="#1F2937" fill-opacity="0.85"/>
</g>
<defs>
<clipPath id="clip0_148_2">
<rect width="12" height="12" fill="white"/>
</clipPath>
</defs>
</svg>
