<svg width="107" height="107" viewBox="0 0 107 107" fill="none" xmlns="http://www.w3.org/2000/svg">
<path d="M84.838 0H21.209C9.543 0 0 9.543 0 21.209V84.838C0 96.504 9.543 106.048 21.209 106.048H84.837C96.504 106.048 106.047 96.504 106.047 84.838V21.209C106.048 9.543 96.505 0 84.838 0ZM84.838 100.745H21.209C12.44 100.745 5.302 93.609 5.302 84.838V58.518C14.227 37.521 32.871 25.46 59.051 25.46C71.096 25.46 78.003 32.083 80.603 37.435C83.12 42.6 82.809 52.413 75.819 54.193C72.867 54.95 67.813 52.938 66.239 49.406C64.779 46.126 66.291 41.23 68.632 39.832C47.267 34.374 24.424 93.847 96.366 95.732C93.471 98.799 89.385 100.745 84.838 100.745Z" fill="white"/>
</svg>
