<svg width="12" height="12" viewBox="0 0 12 12" fill="none" xmlns="http://www.w3.org/2000/svg">
<path d="M11 3.71002C10.955 4.68502 10.275 6.02002 8.96 7.72002C7.6 9.50002 6.45 10.375 5.5 10.375C4.925 10.375 4.43 9.83502 4.025 8.75002C3.75 7.77002 3.5 6.78002 3.22 5.79002C2.92 4.71002 2.59654 4.22502 2.32001 4.06002C2.04348 3.89502 1.45 3.72002 1 4.03502C1.5 3.60002 1.98 3.16502 2.46 2.73002C3.12 2.16002 3.615 1.86002 3.94 1.83002C4.72 1.75002 5.2 2.29002 5.38 3.43002C5.575 4.66502 5.71 5.43002 5.785 5.73002C6 6.75002 6.25 7.25002 6.525 7.25002C6.735 7.25002 7.05 6.93002 7.47 6.26502C7.89 5.60502 8.115 5.10002 8.145 4.75002C8.205 4.18002 7.98 3.89502 7.47 3.89502C7.23 3.89502 6.985 3.95002 6.73 4.06002C7.22 2.44502 8.16 1.66002 9.545 1.70502C10.575 1.73502 11.06 2.40502 11 3.71002Z" fill="black"/>
</svg>
