<?xml version="1.0" encoding="utf-8"?>
<!-- Generator: Adobe Illustrator 21.1.0, SVG Export Plug-In . SVG Version: 6.00 Build 0)  -->
<svg version="1.1" id="Layer_1" xmlns="http://www.w3.org/2000/svg" xmlns:xlink="http://www.w3.org/1999/xlink" x="0px" y="0px"
	 viewBox="0 0 625 150" style="enable-background:new 0 0 625 150;" xml:space="preserve">
<style type="text/css">
	.st0{fill:#AC0033;}
	.st1{fill:#F38B00;}
</style>
<g>
	<g>
		<g>
			<g>
				<g>
					<g>
						<g>
							<g>
								<circle class="st0" cx="545.6" cy="34.6" r="10.4"/>
								<circle class="st0" cx="197" cy="34.7" r="10.4"/>
								<g>
									<path class="st0" d="M286.6,30.3c-0.7-1.6-1.9-3-3.1-3.9c-1.2-0.9-2.6-1.6-4.2-1.9c-1.6-0.3-2.2-0.3-4.1-0.3l-5.2,0
										l-4.3,35c-1.1-1.2-2.5-2.4-4.1-3.5c-1.4-0.9-3.1-1.7-5.1-2.6c-2-0.9-4.4-1.5-7-1.7c-4.1-0.3-8.4,0.2-12.9,1.5
										c-4.4,1.3-8.6,3.6-12.4,6.7c-3.8,3.2-7.1,7.3-9.9,12.4c-2.8,5.1-4.7,11.1-5.5,18.2c-0.7,5.3-0.3,10.3,1,15
										c1.3,4.7,3.3,8.7,6.1,12.3c2.9,3.5,6.1,6.7,10.1,8.7c0,0,1.2,0.9,3.5,1.7c3.6,1,7.4,1.4,11.4,1.3c4.8-0.2,8.7-1.2,11.7-2.8
										c3-1.7,5.2-3.2,6.7-4.7l0,0c0,0.1,0.1,0.2,0.1,0.3c0.7,1.6,1.9,3,3.1,3.9c1.2,0.9,2.6,1.5,4.2,1.8c1.6,0.3,2.2,0.2,4.1,0.2
										h5.2l4.4-35.8c0.1-0.6,0.2-1.2,0.3-1.8l6.5-53.3C287.8,33.7,287.3,32,286.6,30.3z M261.4,88.6c-0.2,5.1-1,9.4-2.3,12.8
										c-1.3,3.4-2.9,6-4.7,8c-1.8,2-3.6,3.4-5.6,4.2c-1.9,0.8-3.6,1.3-5,1.4c-1.4,0.1-3.1-0.1-5-0.6c-1.9-0.5-3.7-1.5-5.3-3.2
										c-1.6-1.7-3-4.1-4.1-7.2c-1.1-3.2-1.6-7.3-1.4-12.4c0.2-5.1,1-9.4,2.3-12.8c1.3-3.4,2.9-6,4.7-7.9c1.8-1.9,3.6-3.3,5.6-4.1
										c1.9-0.8,3.6-1.3,5-1.4c1.4-0.1,3.1,0.1,5,0.6c1.9,0.5,3.7,1.5,5.3,3.1c1.6,1.6,3,4,4.1,7.1
										C261.1,79.3,261.6,83.4,261.4,88.6z"/>
									<g>
										<path class="st0" d="M199.1,53.7c-1.2-0.9-2.6-1.5-4.2-1.8c-1.6-0.3-2.2-0.2-4.1-0.2h-5.2l-7.8,63.5
											c-0.3,2.6-0.3,3.5,0.2,5.2c0.4,1.7,1.5,3.4,2.5,4.4c1,1.1,2.8,2.2,4.3,2.6c1.6,0.4,2.8,0.5,4.7,0.5h5.6l7.8-63.7
											c0.5-3.2,0.1-4.9-0.7-6.6C201.4,56,200.3,54.6,199.1,53.7z"/>
									</g>
									<path class="st0" d="M375.9,25.2c-0.1-0.2-0.3-0.9-0.3-0.9l-59.9,0c-3.1,0-7.5,0-8,0c0,0-0.1,0-0.1,0
										c-2.9-0.1-4.4,0.6-5.8,1.5c-1.4,0.8-2.7,2.1-3.4,3.3c-0.7,1.2-1.2,2.5-1.5,3.9c-0.3,1.4-1,7-1,7.7c0,0,57,0,57,0
										c-6.1,6-13.1,12.9-18.9,18.4c-3,2.9-6.1,5.9-9.2,9c-3.2,3.1-6.2,6.1-9.3,9.1c-3,3-5.9,5.8-8.7,8.6
										c-2.8,2.7-5.3,5.1-7.5,7.3c-3.4,3.3-6.7,7.5-8.9,11.7c-2.6,5.1-4,10.9-4.3,16.6c-0.1,2.2,0,4.4,0.3,6.4c0,0,68.7,0,68.9,0
										c2.5,0,3.9-0.6,5.2-1.4c1.4-0.8,2.7-2.1,3.4-3.3c0.7-1.2,1.2-2.5,1.5-3.9c0.3-1.4,0.4-2,0.5-3.9c0.1-1.2,0.5-3.5,0.6-4.4
										h-60.9c6-5.8,12.4-11.7,18.1-17.3c3-2.9,6.1-5.9,9.2-9c3.1-3.1,6.3-6.1,9.3-9.1c3.1-3,5.7-5.5,8.5-8.3
										c2.8-2.8,5.3-5.2,7.5-7.4c4.5-4.4,8.4-8.6,10.9-12c2.5-3.4,4-6.1,5.2-8.9c1.1-2.7,1.8-5.2,1.9-7.4
										C376.3,29.3,376.4,27.1,375.9,25.2z"/>
									<g>
										<path class="st0" d="M547.6,53.7c-1.2-0.9-2.6-1.5-4.2-1.8c-1.6-0.3-2.2-0.2-4.1-0.2h-5.2l-7.8,63.5
											c-0.3,2.6-0.3,3.5,0.2,5.2c0.4,1.7,1.5,3.4,2.5,4.4c1,1.1,2.8,2.2,4.3,2.6c1.6,0.4,2.8,0.5,4.7,0.5h5.6l7.8-63.7
											c0.5-3.2,0.1-4.9-0.7-6.6C550,56,548.9,54.6,547.6,53.7z"/>
									</g>
									<path class="st0" d="M519.1,72.1c-1.6-5.1-3.9-9.2-6.9-12.4c-3-3.2-6.6-5.4-10.8-6.8c-4.2-1.3-8.4-1.8-12.6-1.5
										c-2.3,0.2-4.5,0.7-6.5,1.4c-2.1,0.8-3.9,1.6-5.5,2.4c-1.6,0.9-3,1.7-4.3,2.7c-1.2,0.9-2,1.5-2.5,1.9c0-0.2-0.1-0.4-0.1-0.5
										c0-0.4-0.1-0.8-0.3-1c-0.1-0.3-0.2-0.6-0.4-0.9c-0.7-1.6-1.9-3-3.1-3.9c-1.2-0.9-2.6-1.6-4.2-1.9c-1.4-0.3-3.6-0.3-3.7-0.3
										h-5.6c0,0-7.8,63.8-7.8,63.8c-0.5,3.1,0,4.9,0.7,6.5c0.7,1.6,1.9,3,3.1,3.9c1.2,0.9,2.6,1.6,4.2,1.9
										c1.5,0.3,2.1,0.3,3.7,0.3c0,0,0,0,0.1,0h5.6l4.7-38.4c0.6-4.6,1.6-8.5,3-11.6c1.5-3.1,3.1-5.6,5.1-7.4
										c1.9-1.8,4.1-3.1,6.4-3.9c2.3-0.7,4.6-1.1,6.9-1c2.2,0.1,4.3,0.6,6.1,1.4c1.8,0.8,3.4,2.2,4.6,4.1c1.2,1.9,2,4.5,2.4,7.8
										c0.4,3.3,0.3,7.4-0.3,12.3l-2.9,23.9c0,0,0,0,0,0l0,0c-0.5,3.2-0.1,5,0.7,6.6c0.7,1.6,1.9,3,3.1,3.9
										c1.2,0.9,2.6,1.6,4.2,1.9c1.5,0.3,2.1,0.3,3.7,0.3c0,0,0.1,0,0.1,0h5.6l4.6-37.5C521,83.3,520.7,77.2,519.1,72.1z"/>
									<path class="st0" d="M438.6,64.1c-1.7-4.2-4.1-7.3-7.1-9.2c-2.8-1.7-6.4-3.3-9.8-3.7c-3.6-0.8-9.2-1.4-15.5-1.4
										c-8.9,0-16.4,1.1-18.9,2.5c-0.3,0.2-0.6,0.3-0.9,0.5c-1.4,0.8-2.7,2.1-3.4,3.3c-0.7,1.2-1.2,2.5-1.5,4
										c-0.3,1.4-0.4,2-0.5,3.9c-0.1,1.4-0.2,2.4-0.2,2.4l0.4-0.1c3.8-0.9,9.9-1.4,16.7-1.4c7.3,0,13.7,0.6,17.4,1.6
										c2.5,0.4,4.7,1.8,5.8,3.8c0,0,1.7,2.6,1.8,6.4c0,1.9-0.4,3.9-1,6.1c-14.7-2.4-26.6-1.9-35.5,1.4
										c-8.9,3.3-14.1,9.6-15.5,19.1c-0.7,4.5-0.4,8.4,0.9,11.7c1.3,3.3,3.2,6,5.8,8.1c2.6,2.2,5.8,3.7,9.4,4.7
										c3.6,1,7.5,1.4,11.4,1.3c4.9-0.2,8.8-1.2,11.8-2.8c3-1.7,5.2-3.2,6.7-4.8c0.1-0.1,0.2-0.1,0.2-0.2c0,0.1,0.2,0.3,0.2,0.4
										c0.7,1.6,1.9,3,3.1,3.9c1.2,0.9,2.6,1.6,4.2,1.9c1.6,0.3,2.2,0.3,4.1,0.3l5.2,0l5.6-45.4C440.8,74.4,440.4,68.4,438.6,64.1
										z M418.1,104.7c-1.2,2.6-2.8,4.7-4.6,6.2c-1.9,1.5-3.9,2.6-6.1,3.1c-2.2,0.6-4.5,0.9-6.7,0.9c-1.8,0-3.6-0.2-5.2-0.5
										c-1.6-0.3-3-0.9-4.1-1.7c-1.1-0.8-2-1.9-2.5-3.3c-0.5-1.4-0.7-3.2-0.4-5.3c0.3-2.1,0.9-3.9,1.9-5.3c1-1.4,2.3-2.5,3.7-3.5
										c1.5-0.9,3-1.6,4.6-1.9c1.6-0.4,3.2-0.6,4.7-0.7c2.5-0.1,4.8-0.1,6.9,0.2c2.1,0.2,3.9,0.4,5.4,0.6c1.8,0.3,3.4,0.7,4.9,1.1
										C420.2,98.7,419.3,102.1,418.1,104.7z"/>
								</g>
							</g>
						</g>
						<path class="st0" d="M623.3,64.1c-1.7-4.2-4.1-7.3-7.1-9.2c-2.8-1.7-6.4-3.3-9.8-3.7c-3.6-0.8-9.2-1.4-15.5-1.4
							c-8.9,0-16.4,1.1-18.9,2.5c-0.3,0.2-0.6,0.3-0.9,0.5c-1.4,0.8-2.7,2.1-3.4,3.3c-0.7,1.2-1.2,2.5-1.5,4c-0.3,1.4-0.4,2-0.5,3.9
							c-0.1,1.4-0.2,2.4-0.2,2.4l0.4-0.1c3.8-0.9,9.9-1.4,16.7-1.4c7.3,0,13.7,0.6,17.4,1.6c2.5,0.4,4.7,1.8,5.8,3.8
							c0,0,1.7,2.6,1.8,6.4c0,1.9-0.4,3.9-1,6.1c-14.7-2.4-26.6-1.9-35.5,1.4c-8.9,3.3-14.1,9.6-15.5,19.1
							c-0.7,4.5-0.4,8.4,0.9,11.7c1.3,3.3,3.2,6,5.8,8.1c2.6,2.2,5.8,3.7,9.4,4.7c3.6,1,7.5,1.4,11.4,1.3c4.9-0.2,8.8-1.2,11.8-2.8
							c3-1.7,5.2-3.2,6.7-4.8c0.1-0.1,0.2-0.1,0.2-0.2c0,0.1,0.2,0.3,0.2,0.4c0.7,1.6,1.9,3,3.1,3.9c1.2,0.9,2.6,1.6,4.2,1.9
							c1.6,0.3,2.2,0.3,4.1,0.3l5.2,0l5.6-45.4C625.4,74.4,625.1,68.4,623.3,64.1z M602.8,104.7c-1.2,2.6-2.8,4.7-4.6,6.2
							c-1.9,1.5-3.9,2.6-6.1,3.1c-2.2,0.6-4.5,0.9-6.7,0.9c-1.8,0-3.6-0.2-5.2-0.5c-1.6-0.3-3-0.9-4.1-1.7c-1.1-0.8-2-1.9-2.5-3.3
							c-0.5-1.4-0.7-3.2-0.4-5.3c0.3-2.1,0.9-3.9,1.9-5.3c1-1.4,2.3-2.5,3.7-3.5c1.5-0.9,3-1.6,4.6-1.9c1.6-0.4,3.2-0.6,4.7-0.7
							c2.5-0.1,4.8-0.1,6.9,0.2c2.1,0.2,3.9,0.4,5.4,0.6c1.8,0.3,3.4,0.7,4.9,1.1C604.9,98.7,604,102.1,602.8,104.7z"/>
					</g>
				</g>
			</g>
		</g>
		<g>
			<g>
				<path class="st0" d="M52.2,128.2L65,24.3l5.7,0c0.5,0,0.9,0,1.3,0c0.3,0,0.6,0,0.8,0c1,0,1.7,0,2.9,0.3c1.9,0.4,3.5,1.1,4.9,2.1
					c1.5,1.1,2.7,2.7,3.6,4.5c0.9,1.9,1.2,5.3,0.6,9.1l-3.2,26l40-40c-0.5-0.1-0.8-0.2-0.8-0.2c-5.5-1.1-9.8-2.6-12.6-3.7
					c-4.7-1.9-8-3.7-10.8-5.4c-2.2-1.4-4.3-2.7-7.1-4.1c-2.6-1.3-5.8-2.7-9.6-3.9c-6.1-2-13.4-3.4-21-3.4c-6.9,0-12.6,0.7-18.1,2.1
					c-5,1.3-9,2.8-13.6,5c0,0-4.6,2.2-10,6L4.5,128.6c-0.7,3.9,2.5,6,5.4,5.4c0.4-0.1,1.4-0.6,2.4-1c2.8-1.2,5.4-2.2,7.9-2.9
					c9.9-3,20.4-3.7,30.8-2.2C51.2,128.1,51.7,128.1,52.2,128.2z"/>
			</g>
		</g>
	</g>
	<path class="st1" d="M176.5,14.6c-1.5-0.1-2.4,0.4-3.1,0.9c-2,1.3-3.8,2.5-5.6,3.4c-3,1.6-5.3,2.6-5.3,2.6
		c-1.4,0.6-2.5,1.1-3.7,1.5c-1.7,0.6-3.3,1.2-4.7,1.6l-51.9,51.9c0.4,0.3,0.8,0.5,1,0.8l45.1,45.2c-2.3,2.7-4.7,4.2-4.8,4.2
		c-2.7,1.6-5.7,2.4-8.8,2.4c-12,0-23-12.1-23-12.1l-26-26l-6.4-6.4L73,135.3c0.8,0.4,1.3,0.7,1.3,0.7c0.3,0.1,2.9,1.6,2.9,1.6
		c0.7,0.4,3.8,1.9,3.7,1.8c1.1,0.5,2.2,1,3.3,1.4c2.2,0.9,4.3,1.5,6.3,2.2c2.5,0.7,5,1.3,8,1.9c0,0,1,0.2,2.7,0.4
		c2.3,0.3,4.9,0.5,8.2,0.6c1.5,0,3.1,0,5-0.1c1.5-0.1,3.1-0.2,4.8-0.4c1.3-0.2,2.8-0.4,4.1-0.7c1-0.2,2-0.4,2.9-0.6
		c3.1-0.7,6.2-1.7,9.5-3c1.5-0.6,3.4-1.4,4.6-2c1.5-0.7,3.2-1.6,4.7-2.5c0.7-0.4,3.2-1.9,6.1-4c2.4-1.8,4.9-3.8,6.9-5.8
		c1.5-1.4,3.8-3.7,6.8-7.4c0.4-0.5,2.9-3.8,3.6-5l11.7-95.1c0.1-0.8-0.2-2.1-1.1-3.2C178.7,15.5,177.6,14.7,176.5,14.6z"/>
</g>
</svg>
