<svg width="117" height="94" viewBox="0 0 117 94" fill="none" xmlns="http://www.w3.org/2000/svg">
<path d="M51.7855 77.3702C54.4507 77.3702 55.8236 79.2278 55.4198 81.8122C54.9352 84.3159 52.7546 86.2542 50.251 86.2542C47.7473 86.2542 46.2128 84.3967 46.6166 81.8122C46.9397 79.2278 49.1203 77.3702 51.7855 77.3702ZM50.4933 84.0736C51.7855 84.0736 52.3508 82.7814 52.6739 81.8122C52.8354 80.7623 52.6739 79.3893 51.3816 79.3893C50.0894 79.3893 49.5241 80.6815 49.3626 81.8122C49.1203 82.9429 49.2818 84.0736 50.4933 84.0736Z" fill="black"/>
<path d="M57.439 74.705H60.2657L58.2466 86.1734H55.4199L57.439 74.705Z" fill="black"/>
<path d="M68.0998 86.1735H65.4346L65.6769 85.0428C65.0307 85.9312 63.9001 86.4157 62.9309 86.4157C60.508 86.4157 60.0234 85.0428 60.4272 82.8622L61.3156 77.7741H64.0616L63.1732 82.5391C62.9309 83.6698 63.4155 84.0736 64.3039 84.0736C64.95 84.0736 65.8384 83.6698 66.0807 82.216L66.8075 77.6933H69.5535L68.0998 86.1735Z" fill="black"/>
<path d="M74.7224 79.6316H73.1071L72.461 83.4275C72.2995 84.0736 72.7033 84.1544 73.3494 84.1544C73.5917 84.1544 73.834 84.1544 74.0763 84.1544L73.6725 86.1735C73.1879 86.1735 72.6225 86.335 72.138 86.335C69.7151 86.335 69.392 85.6889 69.7151 83.4275L70.3612 79.6316L71.088 75.3512H73.9955L73.5109 77.8548H75.1262L74.7224 79.6316Z" fill="black"/>
<path d="M76.0145 77.8548H78.7604L77.2259 86.1734H74.48L76.0145 77.8548ZM78.922 76.8857H76.176L76.5798 74.705H79.3258L78.922 76.8857Z" fill="black"/>
<path d="M84.0908 77.3702C86.756 77.3702 88.129 79.2278 87.7252 81.8122C87.2406 84.3159 85.06 86.2542 82.5563 86.2542C79.8911 86.2542 78.5182 84.3967 78.922 81.8122C79.3258 79.2278 81.4256 77.3702 84.0908 77.3702ZM82.7986 84.0736C84.0908 84.0736 84.6562 82.7814 84.9792 81.8122C85.1408 80.7623 84.9792 79.3893 83.687 79.3893C82.3948 79.3893 81.8295 80.6815 81.6679 81.8122C81.4256 82.9429 81.5872 84.0736 82.7986 84.0736Z" fill="black"/>
<path d="M88.8558 77.8548H91.521L91.3595 78.7432C92.0056 77.8548 93.2171 77.3702 94.267 77.3702C97.0129 77.3702 96.9322 79.3893 96.6899 80.6815L95.64 86.335H92.9748L93.7016 82.0545C93.9439 80.9238 94.1862 79.7931 92.6517 79.7931C91.6018 79.7931 91.0365 80.6815 90.8749 81.5699L90.1481 86.335H87.4021L88.8558 77.8548Z" fill="black"/>
<path d="M100.163 83.1852C100.001 83.589 100.163 83.9121 100.405 84.0736C100.647 84.3159 101.051 84.3159 101.455 84.3159C101.94 84.3159 102.828 84.0736 102.828 83.4275C102.99 82.7814 102.101 82.7006 101.697 82.5391C100.082 82.1353 97.9015 82.0545 98.3053 79.7931C98.7091 77.774 100.97 77.2895 102.586 77.2895C104.443 77.2895 106.22 77.774 105.978 79.9547H103.474C103.474 79.5508 103.474 79.3085 103.232 79.2278C102.99 79.0663 102.747 78.9855 102.343 78.9855C101.859 78.9855 101.213 78.9855 101.051 79.6316C100.89 80.3585 102.667 80.52 103.959 80.9238C105.574 81.3276 105.816 82.4583 105.736 83.1852C105.332 85.4466 103.07 86.2542 101.213 86.2542C99.1937 86.2542 97.3361 85.6081 97.6592 83.1852H100.163Z" fill="black"/>
<path d="M13.0191 74.5435H16.0881L15.1997 79.4701L19.884 74.705H23.276L18.3495 79.7931L21.6608 86.0927H18.1072L15.0382 79.8739L13.9075 86.0927H11L13.0191 74.5435Z" fill="black"/>
<path d="M25.2951 82.2968C25.1335 82.7814 25.4566 83.1852 25.6989 83.589C25.9412 83.8313 26.4257 83.9929 26.9911 83.9929C27.718 83.9929 28.7679 83.7506 28.8486 82.8622C29.0102 81.9738 27.9602 81.8122 27.3141 81.7315C25.1335 81.2469 22.6299 81.0854 23.1144 78.1779C23.599 75.5127 26.2642 74.6243 28.4448 74.6243C30.8677 74.6243 32.9676 75.5127 32.6445 78.2587H29.5755C29.737 77.7741 29.5755 77.5318 29.3332 77.2087C29.0909 77.0472 28.6871 76.9664 28.2025 76.9664C27.5564 76.9664 26.668 76.9664 26.5873 77.8548C26.4257 78.9048 28.3641 79.147 29.9793 79.3893C32.1599 79.8739 32.4022 81.4084 32.2407 82.2968C31.7561 85.2043 29.0909 86.1735 26.668 86.1735C24.0028 86.1735 22.1453 85.2851 22.226 82.2968H25.2951Z" fill="black"/>
<path d="M38.8634 82.2968C38.7019 82.7814 39.0249 83.1852 39.2672 83.589C39.5095 83.8313 39.9941 83.9929 40.5594 83.9929C41.2863 83.9929 42.3362 83.7506 42.417 82.8622C42.5785 81.9738 41.5286 81.8122 40.8825 81.7315C38.7019 81.2469 36.1982 81.0854 36.6828 78.1779C37.1674 75.5127 39.8326 74.6243 42.0132 74.6243C44.4361 74.6243 46.5359 75.5127 46.2129 78.2587H43.1439C43.3054 77.7741 43.1439 77.5318 42.9016 77.2087C42.6593 77.0472 42.2555 76.9664 41.7709 76.9664C41.1248 76.9664 40.2364 76.9664 40.1556 77.8548C39.9941 78.9048 41.9324 79.147 43.5477 79.3893C45.7283 79.8739 45.9706 81.4084 45.8091 82.2968C45.3245 85.2043 42.6593 86.1735 40.2364 86.1735C37.5712 86.1735 35.7136 85.2851 35.7944 82.2968H38.8634Z" fill="black"/>
<path d="M63.801 43.1139C58.3898 39.2373 53.0594 35.7644 48.5367 33.2608C50.5558 32.1301 52.7364 30.8379 54.8362 29.4649C65.3355 22.7615 72.7657 15.8159 71.4735 13.7968C70.1813 11.9392 60.8935 15.6543 50.3943 22.3577C46.7599 24.7806 43.4486 27.1227 40.7834 29.3034C41.8333 16.785 41.0257 7.41648 38.9259 7.01266C36.2607 6.52808 32.384 20.0156 30.2034 37.0566C28.0228 54.2592 28.4266 68.3928 31.0918 68.8774C33.757 69.362 37.6336 55.8745 39.8143 38.8334V38.6719C44.0139 42.8716 49.7481 47.7982 56.613 52.7247C71.3927 63.4663 84.8802 69.9273 86.8993 67.2622C88.9184 64.597 78.5807 53.8554 63.801 43.1139Z" fill="white"/>
<path d="M33.5147 28.5765C32.7878 29.4649 33.6762 31.4839 35.6953 34.1491C36.0991 33.7453 36.5837 33.2607 36.9875 32.7762C35.3722 31.2417 34.6454 30.111 34.9684 29.6264C35.3722 29.1418 36.5029 29.2226 38.2797 29.7879C38.2797 29.3841 38.4413 29.061 38.4413 28.738C35.8568 27.8496 34.1608 27.7688 33.5147 28.5765Z" fill="#009A63"/>
<path d="M45.0638 32.7762C45.4676 32.5339 45.7906 32.2916 46.1137 32.0493C44.4984 31.1609 42.9639 30.5148 41.5909 29.8687C41.1871 30.111 40.9448 30.3533 40.541 30.5956C42.0755 31.1609 43.4485 31.8878 45.0638 32.7762Z" fill="#009A63"/>
<path d="M63.8009 43.1139C58.3897 39.2372 53.0594 35.7644 48.5366 33.2607C48.1328 33.503 47.6482 33.7453 47.2444 33.9068C47.8905 34.3107 48.5366 34.6337 49.0212 35.0375C55.9668 39.318 60.9742 43.76 60.1665 44.9714C59.4397 46.2636 53.0594 43.8407 46.1137 39.5603C44.4984 38.5104 43.0447 37.5412 41.6717 36.6528C41.0256 36.8951 40.3795 37.1374 39.8949 37.3797C39.8949 37.8643 39.7334 38.2681 39.7334 38.7527C43.9331 42.9523 49.6673 47.8789 56.5322 52.8055C71.3119 63.547 84.7994 70.0081 86.8185 67.3429C88.9183 64.5969 78.5806 53.8554 63.8009 43.1139Z" fill="#009A63"/>
<path d="M40.218 35.8451C40.3795 35.8451 40.3795 35.6836 40.4603 35.6836C40.2988 35.6836 40.2988 35.5221 40.218 35.5221C40.218 35.5221 40.218 35.6836 40.218 35.8451Z" fill="#009A63"/>
<path d="M37.6336 33.4223C37.149 33.9069 36.5837 34.4722 36.2606 34.7953C36.5029 35.1991 36.7452 35.4414 37.149 35.8452C37.3105 35.0375 37.5528 34.1491 37.6336 33.4223Z" fill="#009A63"/>
<path d="M37.6336 33.2607C37.7951 32.7762 37.8759 32.2108 37.8759 31.8878C37.472 32.13 37.2297 32.5339 36.8259 32.7762C37.149 32.9377 37.3913 33.18 37.6336 33.2607Z" fill="#EF8200"/>
<path d="M40.4603 35.6837C40.8641 36.0875 41.3487 36.3298 41.8333 36.7336C43.4486 36.0067 45.3869 35.1183 47.406 34.0684C46.6791 33.6646 45.8715 33.18 45.2254 32.7762C43.4486 33.9069 41.8333 34.9568 40.4603 35.6837Z" fill="#EF8200"/>
<path d="M41.6718 29.8687C42.3179 29.3841 43.0447 28.8188 43.6909 28.3342C49.102 24.4575 54.0286 22.0346 54.8362 23.0038C55.5631 24.0537 51.6864 28.0919 46.2753 31.9685C47.0022 32.3724 47.8098 32.8569 48.6982 33.2608C50.7173 32.1301 52.8979 30.8379 54.9977 29.4649C65.3354 22.7615 72.7657 15.8159 71.5542 13.7968C70.262 11.9392 60.9742 15.6543 50.475 22.3577C46.8406 24.7806 43.5293 27.1227 40.8641 29.3034C40.8641 29.3034 40.8641 29.3034 40.8641 29.4649C41.0257 29.6264 41.3487 29.7879 41.6718 29.8687Z" fill="#EF8200"/>
<path d="M35.1299 37.2181C34.8876 36.8143 35.2915 35.9259 36.2606 34.7952C36.0183 34.5529 35.8568 34.3106 35.776 34.1491C34.1608 36.0067 33.3531 37.4604 33.757 38.1873C34.1608 38.6719 35.0492 38.8334 36.4222 38.5911C36.5837 38.1873 36.6644 37.8642 36.826 37.4604C35.8568 37.5412 35.3722 37.5412 35.1299 37.2181Z" fill="#EF8200"/>
<path d="M40.7026 30.5955C40.9449 30.3532 41.3487 30.111 41.7526 29.8687C41.5103 29.7071 41.1065 29.6264 40.8642 29.4648C40.7026 29.8687 40.7026 30.2725 40.7026 30.5955Z" fill="#009A63"/>
<path d="M37.6335 33.2608C37.3912 33.0185 37.2297 32.8569 36.9874 32.6147C36.5028 33.0992 36.099 33.5031 35.6952 33.9876C35.8567 34.2299 36.099 34.4722 36.1798 34.6337C36.6644 34.3914 36.9874 33.9069 37.6335 33.2608Z" fill="#009A63"/>
<path d="M40.218 35.8452C40.218 36.3298 40.0565 36.8951 40.0565 37.3797C40.7026 37.1374 41.1872 36.8951 41.8333 36.6528C41.3487 36.249 40.9449 36.0067 40.4603 35.6029C40.2988 35.6837 40.2988 35.8452 40.218 35.8452Z" fill="#009A63"/>
<path d="M45.0638 32.7761C45.7907 33.18 46.4368 33.503 47.2445 34.0684C47.6483 33.8261 47.9713 33.5838 48.5367 33.4223C47.8098 32.9377 46.9214 32.5339 46.1138 32.13C45.8715 32.2916 45.4677 32.5339 45.0638 32.7761Z" fill="#EF8200"/>
<path d="M39.8141 30.2725C39.3296 30.0302 38.7642 29.8687 38.4412 29.7879C38.2796 30.5148 38.1989 31.1609 38.0374 31.9685C38.5219 31.4032 39.168 30.7571 39.8141 30.2725Z" fill="#004097"/>
<path d="M37.6335 33.4223C38.3604 34.0684 39.2488 34.7952 40.1372 35.6029C40.2987 33.9876 40.541 32.2916 40.6218 30.6763C39.5719 31.4839 38.5219 32.3723 37.6335 33.4223C37.6335 33.2607 37.6335 33.2607 37.6335 33.4223Z" fill="#004097"/>
<path d="M38.9258 37.8643C38.0374 38.2681 37.149 38.3489 36.4221 38.5912C35.2914 42.4678 34.1607 44.8907 33.2723 44.8099C31.7378 44.4061 31.6571 36.0875 33.1108 25.9921C34.6453 15.8966 37.149 7.90106 38.6835 8.30488C40.218 8.7087 40.2988 17.0273 38.845 27.1228C38.6835 27.6073 38.6835 28.2534 38.6027 28.738C39.2488 28.9803 39.9757 29.2226 40.7833 29.4649C41.8333 16.8658 41.0256 7.49725 38.9258 7.09343C36.1798 6.60885 32.2224 20.1771 30.0418 37.2182C28.0227 54.2593 28.4265 68.3928 31.0917 68.8774C33.7569 69.362 37.6336 55.8745 39.8142 38.8334V38.6719C39.5719 38.4296 39.1681 38.1066 38.9258 37.8643Z" fill="#004097"/>
<path d="M36.7451 37.2989C37.1489 37.1374 37.472 37.0566 38.0373 36.8143C37.6335 36.4105 37.3912 36.1682 37.1489 35.7644C36.9874 36.3297 36.9066 36.8143 36.7451 37.2989Z" fill="#004097"/>
<path d="M39.8142 30.2725C40.0565 30.0302 40.4603 29.7879 40.7026 29.5456C39.9757 29.3033 39.1681 28.8995 38.522 28.8188C38.522 29.2226 38.3605 29.5456 38.3605 29.8687C38.7643 29.8687 39.3296 30.0302 39.8142 30.2725Z" fill="#004097"/>
<path d="M38.9258 37.8643C39.1681 38.1065 39.5719 38.5104 39.8142 38.7526C39.8142 38.2681 39.9757 37.8642 39.9757 37.3797C39.6527 37.5412 39.3296 37.7027 38.9258 37.8643Z" fill="#009A63"/>
<path d="M37.6335 33.4223C37.472 34.3107 37.2297 35.0375 37.1489 35.8452C37.3912 36.249 37.795 36.4913 38.0373 36.8951C38.6834 36.6528 39.4103 36.249 40.2179 35.8452C40.2179 35.6836 40.2179 35.6029 40.2179 35.4414C39.3295 34.7952 38.4411 34.0684 37.6335 33.4223Z" fill="#009A63"/>
<path d="M36.7451 37.2989C36.5836 37.7028 36.5028 38.0258 36.3413 38.4296C37.0682 38.2681 37.8758 38.0258 38.845 37.7028C38.6027 37.2989 38.1989 37.0567 37.9566 36.8144C37.5528 37.0567 37.1489 37.2182 36.7451 37.2989Z" fill="#EF8200"/>
<path d="M37.6335 33.2608C38.5219 32.3724 39.4911 31.484 40.7026 30.5956C40.4603 30.434 40.0564 30.3533 39.8142 30.1917C39.1681 30.6763 38.5219 31.3224 37.9566 31.807C37.8758 32.3724 37.7951 32.7762 37.6335 33.2608Z" fill="#004097"/>
<path d="M40.7826 29.4641C40.7826 29.385 40.7035 29.4641 40.7826 29.4641Z" fill="#004097"/>
<path d="M40.7026 30.5955C40.7026 30.1917 40.8641 29.8687 40.8641 29.4648C40.4603 29.7071 40.218 29.9494 39.9757 30.1917C40.0565 30.3532 40.4603 30.5148 40.7026 30.5955Z" fill="#004097"/>
<path d="M38.0374 36.8143C38.2796 37.0566 38.6835 37.4604 38.9258 37.7027C39.3296 37.5412 39.6526 37.4604 40.0564 37.2989C40.0564 36.8143 40.218 36.249 40.218 35.7644C39.4103 36.1682 38.6835 36.572 38.0374 36.8143Z" fill="#009A63"/>
</svg>
