<svg width="118" height="95" viewBox="0 0 118 95" fill="none" xmlns="http://www.w3.org/2000/svg">
<path d="M50.5 83.5C53.8 83.5 55.5 85.8 55 89C54.4 92.1 51.7 94.5 48.6 94.5C45.5 94.5 43.6 92.2 44.1 89C44.5 85.8 47.2 83.5 50.5 83.5ZM48.9 91.8C50.5 91.8 51.2 90.2 51.6 89C51.8 87.7 51.6 86 50 86C48.4 86 47.7 87.6 47.5 89C47.2 90.4 47.4 91.8 48.9 91.8Z" fill="black"/>
<path d="M57.5 80.2H61L58.5 94.4H55L57.5 80.2Z" fill="black"/>
<path d="M70.7 94.4H67.4L67.7 93C66.9 94.1 65.5 94.7 64.3 94.7C61.3 94.7 60.7 93 61.2 90.3L62.3 84H65.7L64.6 89.9C64.3 91.3 64.9 91.8 66 91.8C66.8 91.8 67.9 91.3 68.2 89.5L69.1 83.9H72.5L70.7 94.4Z" fill="black"/>
<path d="M78.9 86.3H76.9L76.1 91C75.9 91.8 76.4 91.9 77.2 91.9C77.5 91.9 77.8 91.9 78.1 91.9L77.6 94.4C77 94.4 76.3 94.6 75.7 94.6C72.7 94.6 72.3 93.8 72.7 91L73.5 86.3L74.4 81H78L77.4 84.1H79.4L78.9 86.3Z" fill="black"/>
<path d="M80.5 84.1H83.9L82 94.4H78.6L80.5 84.1ZM84.1 82.9H80.7L81.2 80.2H84.6L84.1 82.9Z" fill="black"/>
<path d="M90.5 83.5C93.8 83.5 95.5 85.8 95 89C94.4 92.1 91.7 94.5 88.6 94.5C85.3 94.5 83.6 92.2 84.1 89C84.6 85.8 87.2 83.5 90.5 83.5ZM88.9 91.8C90.5 91.8 91.2 90.2 91.6 89C91.8 87.7 91.6 86 90 86C88.4 86 87.7 87.6 87.5 89C87.2 90.4 87.4 91.8 88.9 91.8Z" fill="black"/>
<path d="M96.4 84.1H99.7L99.5 85.2C100.3 84.1 101.8 83.5 103.1 83.5C106.5 83.5 106.4 86 106.1 87.6L104.8 94.6H101.5L102.4 89.3C102.7 87.9 103 86.5 101.1 86.5C99.8 86.5 99.1 87.6 98.9 88.7L98 94.6H94.6L96.4 84.1Z" fill="black"/>
<path d="M110.4 90.7C110.2 91.2 110.4 91.6 110.7 91.8C111 92.1 111.5 92.1 112 92.1C112.6 92.1 113.7 91.8 113.7 91C113.9 90.2 112.8 90.1 112.3 89.9C110.3 89.4 107.6 89.3 108.1 86.5C108.6 84 111.4 83.4 113.4 83.4C115.7 83.4 117.9 84 117.6 86.7H114.5C114.5 86.2 114.5 85.9 114.2 85.8C113.9 85.6 113.6 85.5 113.1 85.5C112.5 85.5 111.7 85.5 111.5 86.3C111.3 87.2 113.5 87.4 115.1 87.9C117.1 88.4 117.4 89.8 117.3 90.7C116.8 93.5 114 94.5 111.7 94.5C109.2 94.5 106.9 93.7 107.3 90.7H110.4Z" fill="black"/>
<path d="M2.5 80H6.3L5.2 86.1L11 80.2H15.2L9.1 86.5L13.2 94.3H8.8L5 86.6L3.6 94.3H0L2.5 80Z" fill="black"/>
<path d="M17.7 89.6C17.5 90.2 17.9 90.7 18.2 91.2C18.5 91.5 19.1 91.7 19.8 91.7C20.7 91.7 22 91.4 22.1 90.3C22.3 89.2 21 89 20.2 88.9C17.5 88.3 14.4 88.1 15 84.5C15.6 81.2 18.9 80.1 21.6 80.1C24.6 80.1 27.2 81.2 26.8 84.6H23C23.2 84 23 83.7 22.7 83.3C22.4 83.1 21.9 83 21.3 83C20.5 83 19.4 83 19.3 84.1C19.1 85.4 21.5 85.7 23.5 86C26.2 86.6 26.5 88.5 26.3 89.6C25.7 93.2 22.4 94.4 19.4 94.4C16.1 94.4 13.8 93.3 13.9 89.6H17.7Z" fill="black"/>
<path d="M34.5 89.6C34.3 90.2 34.7 90.7 35 91.2C35.3 91.5 35.9 91.7 36.6 91.7C37.5 91.7 38.8 91.4 38.9 90.3C39.1 89.2 37.8 89 37 88.9C34.3 88.3 31.2 88.1 31.8 84.5C32.4 81.2 35.7 80.1 38.4 80.1C41.4 80.1 44 81.2 43.6 84.6H39.8C40 84 39.8 83.7 39.5 83.3C39.2 83.1 38.7 83 38.1 83C37.3 83 36.2 83 36.1 84.1C35.9 85.4 38.3 85.7 40.3 86C43 86.6 43.3 88.5 43.1 89.6C42.5 93.2 39.2 94.4 36.2 94.4C32.9 94.4 30.6 93.3 30.7 89.6H34.5Z" fill="black"/>
<path d="M65.3773 44.7157C58.6773 39.9157 52.0773 35.6157 46.4773 32.5157C48.9773 31.1157 51.6773 29.5157 54.2773 27.8157C67.2773 19.5157 76.4773 10.9157 74.8773 8.41567C73.2773 6.11567 61.7773 10.7157 48.7773 19.0157C44.2773 22.0157 40.1773 24.9157 36.8773 27.6157C38.1773 12.1157 37.1773 0.515675 34.5773 0.0156749C31.2773 -0.584325 26.4773 16.1157 23.7773 37.2157C21.0773 58.5157 21.5773 76.0157 24.8773 76.6157C28.1773 77.2157 32.9773 60.5157 35.6773 39.4157V39.2157C40.8773 44.4157 47.9773 50.5157 56.4773 56.6157C74.7773 69.9157 91.4773 77.9157 93.9773 74.6157C96.4773 71.3157 83.6773 58.0157 65.3773 44.7157Z" fill="white"/>
<path d="M27.8773 26.7157C26.9773 27.8157 28.0773 30.3157 30.5773 33.6157C31.0773 33.1157 31.6773 32.5157 32.1773 31.9157C30.1773 30.0157 29.2773 28.6157 29.6773 28.0157C30.1773 27.4157 31.5773 27.5157 33.7773 28.2157C33.7773 27.7157 33.9773 27.3157 33.9773 26.9157C30.7773 25.8157 28.6773 25.7157 27.8773 26.7157Z" fill="#009A63"/>
<path d="M42.1773 31.9157C42.6773 31.6157 43.0773 31.3157 43.4773 31.0157C41.4773 29.9157 39.5773 29.1157 37.8773 28.3157C37.3773 28.6157 37.0773 28.9157 36.5773 29.2157C38.4773 29.9157 40.1773 30.8157 42.1773 31.9157Z" fill="#009A63"/>
<path d="M65.3773 44.7157C58.6773 39.9157 52.0773 35.6157 46.4773 32.5157C45.9773 32.8157 45.3773 33.1157 44.8773 33.3157C45.6773 33.8157 46.4773 34.2157 47.0773 34.7157C55.6773 40.0157 61.8773 45.5157 60.8773 47.0157C59.9773 48.6157 52.0773 45.6157 43.4773 40.3157C41.4773 39.0157 39.6773 37.8157 37.9773 36.7157C37.1773 37.0157 36.3773 37.3157 35.7773 37.6157C35.7773 38.2157 35.5773 38.7157 35.5773 39.3157C40.7773 44.5157 47.8773 50.6157 56.3773 56.7157C74.6773 70.0157 91.3773 78.0157 93.8773 74.7157C96.4773 71.3157 83.6773 58.0157 65.3773 44.7157Z" fill="#009A63"/>
<path d="M36.1773 35.7157C36.3773 35.7157 36.3773 35.5157 36.4773 35.5157C36.2773 35.5157 36.2773 35.3157 36.1773 35.3157C36.1773 35.3157 36.1773 35.5157 36.1773 35.7157Z" fill="#009A63"/>
<path d="M32.9773 32.7157C32.3773 33.3157 31.6773 34.0157 31.2773 34.4157C31.5773 34.9157 31.8773 35.2157 32.3773 35.7157C32.5773 34.7157 32.8773 33.6157 32.9773 32.7157Z" fill="#009A63"/>
<path d="M32.9773 32.5157C33.1773 31.9157 33.2773 31.2157 33.2773 30.8157C32.7773 31.1157 32.4773 31.6157 31.9773 31.9157C32.3773 32.1157 32.6773 32.4157 32.9773 32.5157Z" fill="#EF8200"/>
<path d="M36.4773 35.5157C36.9773 36.0157 37.5773 36.3157 38.1773 36.8157C40.1773 35.9157 42.5773 34.8157 45.0773 33.5157C44.1773 33.0157 43.1773 32.4157 42.3773 31.9157C40.1773 33.3157 38.1773 34.6157 36.4773 35.5157Z" fill="#EF8200"/>
<path d="M37.9773 28.3157C38.7773 27.7157 39.6773 27.0157 40.4773 26.4157C47.1773 21.6157 53.2773 18.6157 54.2773 19.8157C55.1773 21.1157 50.3773 26.1157 43.6773 30.9157C44.5773 31.4157 45.5773 32.0157 46.6773 32.5157C49.1773 31.1157 51.8773 29.5157 54.4773 27.8157C67.2773 19.5157 76.4773 10.9157 74.9773 8.41567C73.3773 6.11567 61.8773 10.7157 48.8773 19.0157C44.3773 22.0157 40.2773 24.9157 36.9773 27.6157C36.9773 27.6157 36.9773 27.6157 36.9773 27.8157C37.1773 28.0157 37.5773 28.2157 37.9773 28.3157Z" fill="#EF8200"/>
<path d="M29.8773 37.4157C29.5773 36.9157 30.0773 35.8157 31.2773 34.4157C30.9773 34.1157 30.7773 33.8157 30.6773 33.6157C28.6773 35.9157 27.6773 37.7157 28.1773 38.6157C28.6773 39.2157 29.7773 39.4157 31.4773 39.1157C31.6773 38.6157 31.7773 38.2157 31.9773 37.7157C30.7773 37.8157 30.1773 37.8157 29.8773 37.4157Z" fill="#EF8200"/>
<path d="M36.7773 29.2157C37.0773 28.9157 37.5773 28.6157 38.0773 28.3157C37.7773 28.1157 37.2773 28.0157 36.9773 27.8157C36.7773 28.3157 36.7773 28.8157 36.7773 29.2157Z" fill="#009A63"/>
<path d="M32.9773 32.5157C32.6773 32.2157 32.4773 32.0157 32.1773 31.7157C31.5773 32.3157 31.0773 32.8157 30.5773 33.4157C30.7773 33.7157 31.0773 34.0157 31.1773 34.2157C31.7773 33.9157 32.1773 33.3157 32.9773 32.5157Z" fill="#009A63"/>
<path d="M36.1773 35.7157C36.1773 36.3157 35.9773 37.0157 35.9773 37.6157C36.7773 37.3157 37.3773 37.0157 38.1773 36.7157C37.5773 36.2157 37.0773 35.9157 36.4773 35.4157C36.2773 35.5157 36.2773 35.7157 36.1773 35.7157Z" fill="#009A63"/>
<path d="M42.1773 31.9157C43.0773 32.4157 43.8773 32.8157 44.8773 33.5157C45.3773 33.2157 45.7773 32.9157 46.4773 32.7157C45.5773 32.1157 44.4773 31.6157 43.4773 31.1157C43.1773 31.3157 42.6773 31.6157 42.1773 31.9157Z" fill="#EF8200"/>
<path d="M35.6773 28.8157C35.0773 28.5157 34.3773 28.3157 33.9773 28.2157C33.7773 29.1157 33.6773 29.9157 33.4773 30.9157C34.0773 30.2157 34.8773 29.4157 35.6773 28.8157Z" fill="#004097"/>
<path d="M32.9773 32.7157C33.8773 33.5157 34.9773 34.4157 36.0773 35.4157C36.2773 33.4157 36.5773 31.3157 36.6773 29.3157C35.3773 30.3157 34.0773 31.4157 32.9773 32.7157C32.9773 32.5157 32.9773 32.5157 32.9773 32.7157Z" fill="#004097"/>
<path d="M34.5773 38.2157C33.4773 38.7157 32.3773 38.8157 31.4773 39.1157C30.0773 43.9157 28.6773 46.9157 27.5773 46.8157C25.6773 46.3157 25.5773 36.0157 27.3773 23.5157C29.2773 11.0157 32.3773 1.11568 34.2773 1.61568C36.1773 2.11568 36.2773 12.4157 34.4773 24.9157C34.2773 25.5157 34.2773 26.3157 34.1773 26.9157C34.9773 27.2157 35.8773 27.5157 36.8773 27.8157C38.1773 12.2157 37.1773 0.615683 34.5773 0.115683C31.1773 -0.484317 26.2773 16.3157 23.5773 37.4157C21.0773 58.5157 21.5773 76.0157 24.8773 76.6157C28.1773 77.2157 32.9773 60.5157 35.6773 39.4157V39.2157C35.3773 38.9157 34.8773 38.5157 34.5773 38.2157Z" fill="#004097"/>
<path d="M31.8773 37.5157C32.3773 37.3157 32.7773 37.2157 33.4773 36.9157C32.9773 36.4157 32.6773 36.1157 32.3773 35.6157C32.1773 36.3157 32.0773 36.9157 31.8773 37.5157Z" fill="#004097"/>
<path d="M35.6773 28.8157C35.9773 28.5157 36.4773 28.2157 36.7773 27.9157C35.8773 27.6157 34.8773 27.1157 34.0773 27.0157C34.0773 27.5157 33.8773 27.9157 33.8773 28.3157C34.3773 28.3157 35.0773 28.5157 35.6773 28.8157Z" fill="#004097"/>
<path d="M34.5773 38.2157C34.8773 38.5157 35.3773 39.0157 35.6773 39.3157C35.6773 38.7157 35.8773 38.2157 35.8773 37.6157C35.4773 37.8157 35.0773 38.0157 34.5773 38.2157Z" fill="#009A63"/>
<path d="M32.9773 32.7157C32.7773 33.8157 32.4773 34.7157 32.3773 35.7157C32.6773 36.2157 33.1773 36.5157 33.4773 37.0157C34.2773 36.7157 35.1773 36.2157 36.1773 35.7157C36.1773 35.5157 36.1773 35.4157 36.1773 35.2157C35.0773 34.4157 33.9773 33.5157 32.9773 32.7157Z" fill="#009A63"/>
<path d="M31.8773 37.5157C31.6773 38.0157 31.5773 38.4157 31.3773 38.9157C32.2773 38.7157 33.2773 38.4157 34.4773 38.0157C34.1773 37.5157 33.6773 37.2157 33.3773 36.9157C32.8773 37.2157 32.3773 37.4157 31.8773 37.5157Z" fill="#EF8200"/>
<path d="M32.9773 32.5157C34.0773 31.4157 35.2773 30.3157 36.7773 29.2157C36.4773 29.0157 35.9773 28.9157 35.6773 28.7157C34.8773 29.3157 34.0773 30.1157 33.3773 30.7157C33.2773 31.4157 33.1773 31.9157 32.9773 32.5157Z" fill="#004097"/>
<path d="M36.8773 27.8157C36.7773 27.8157 36.8773 27.7157 36.8773 27.8157V27.8157Z" fill="#004097"/>
<path d="M36.7773 29.2157C36.7773 28.7157 36.9773 28.3157 36.9773 27.8157C36.4773 28.1157 36.1773 28.4157 35.8773 28.7157C35.9773 28.9157 36.4773 29.1157 36.7773 29.2157Z" fill="#004097"/>
<path d="M33.4773 36.9157C33.7773 37.2157 34.2773 37.7157 34.5773 38.0157C35.0773 37.8157 35.4773 37.7157 35.9773 37.5157C35.9773 36.9157 36.1773 36.2157 36.1773 35.6157C35.1773 36.1157 34.2773 36.6157 33.4773 36.9157Z" fill="#009A63"/>
</svg>
