<svg xmlns="http://www.w3.org/2000/svg" width="169.518" height="76.864">
	<defs>
		<clipPath id="a">
			<path fill="none" d="M0 0h169.518v76.864H0z"/>
		</clipPath>
		<clipPath id="b">
			<path d="M153.437 63.7q5.034.542 10.044 1.154v-40.6l-10.017-.012q0 19.729-.027 39.457M66.725 32.636H74.4v27.287q3.664-.041 7.338-.041h2.2v-27.25h7.782v-8.387h-.246q-12.375.006-24.745 0v8.394m-12.929.414h.108c.931 4.986 1.772 9.988 2.73 14.967-2.244.019-3.366.031-5.61.059.983-5 1.831-10.02 2.772-15.025M38.9 61.241q4.92-.313 9.859-.555c.378-2.212.647-3.6 1.063-5.793 3.2-.1 4.8-.153 7.992-.232.388 2.145.611 3.387.967 5.61q4.878-.163 9.775-.259c-2.836-11.9-5.729-23.834-8.388-35.773h-12.6c-2.79 12.3-5.8 24.724-8.665 37.006m83.914-37.006q0 12.525-.007 25.05a19.8 19.8 0 0 0 .847 6.31 11.188 11.188 0 0 0 2.636 4.236 8.8 8.8 0 0 0 2.278 1.675q7.147.5 14.249 1.144a7.81 7.81 0 0 0 2.581-1.6 9.38 9.38 0 0 0 2.6-4.088 22.458 22.458 0 0 0 .876-6.783q.025-12.967.006-25.936h-10.018q0 13.492-.012 26.985c0 1.839-.278 3.046-.818 3.632a2.65 2.65 0 0 1-2.21.8 2.968 2.968 0 0 1-2.206-1.029c-.537-.633-.8-1.837-.8-3.64q.035-13.378.013-26.752H122.813m-99.236 0c-1.715 7.2-3.448 14.4-5.139 21.612h-.107c-1.672-7.207-3.387-14.4-5.066-21.611q-6.632 0-13.264.015v40.6q4.377-.535 8.77-1.016c.023-8.334.051-17.287.059-25.606h.108c1.87 8.219 3.774 16.777 5.647 25q3.735-.375 7.484-.709c1.908-8.166 3.9-16.567 5.8-24.734h.108c-.013 7.839-.059 16.377-.1 24.246q4.415-.354 8.849-.651c.056-12.162.094-25.009.111-37.15H23.573m73.677 2.359a10.139 10.139 0 0 0-3.341 8 10.885 10.885 0 0 0 1.054 5.221A11.417 11.417 0 0 0 97.8 43.36a17.414 17.414 0 0 0 3.94 2.332 82.828 82.828 0 0 0 3.762 1.54 11.276 11.276 0 0 1 3.034 1.581 2.8 2.8 0 0 1 1.094 2.262 3.607 3.607 0 0 1-.806 2.485 3.063 3.063 0 0 1-2.427.863 3.4 3.4 0 0 1-2.367-.945 3.006 3.006 0 0 1-.912-2.581v-.8c-3.878-.056-5.816-.079-9.693-.107v1.146a10.24 10.24 0 0 0 1.036 4.4 9.528 9.528 0 0 0 2.492 3.232 9.414 9.414 0 0 0 2.136 1.34q7.21.185 14.383.522a12.262 12.262 0 0 0 2.654-1.449 9.211 9.211 0 0 0 3.844-7.968 11.079 11.079 0 0 0-1.131-5.431 11.716 11.716 0 0 0-3.143-3.555 18.9 18.9 0 0 0-3.9-2.248c-1.384-.607-2.713-1.121-3.933-1.658a11.573 11.573 0 0 1-3.044-1.889 3.689 3.689 0 0 1-1.213-2.9 3.123 3.123 0 0 1 .754-2.041 2.836 2.836 0 0 1 2.37-1.017 2.607 2.607 0 0 1 2.154 1.179 4.455 4.455 0 0 1 .7 2.626v.888c3.618.018 5.425.026 9.043.053 0-4.042-1.022-6.821-2.979-8.712s-4.756-3.047-9.136-3.047c-4.237 0-7.18 1.084-9.262 3.134" transform="translate(0 -23.46)" fill="none"/>
		</clipPath>
		<linearGradient id="c" x2="0" y2="1" gradientUnits="objectBoundingBox">
			<stop offset="0" stop-color="#009682"/>
			<stop offset=".287" stop-color="#03917e"/>
			<stop offset=".586" stop-color="#0e8574"/>
			<stop offset=".889" stop-color="#217063"/>
			<stop offset="1" stop-color="#2a675c"/>
		</linearGradient>
	</defs>
	<g clip-path="url(#a)" fill-rule="evenodd">
		<path d="M52.797 63.789v2.721h-1.518l-.2.563h1.456a11.748 11.748 0 0 1-1.962 5.97 6.085 6.085 0 0 0 2.169-2.2v4.626c0 .369-.16.952.571.952h.89c.469 0 .985-.04.985-.795v-6.124l.728 1.981a1.6 1.6 0 0 0 1.222-.7 1.071 1.071 0 0 0-.353-1.417 6.344 6.344 0 0 0-1.561-.778v-1.5h1.52c.3 0 .452.039.178-.349s-1.007-1.4-1.007-1.4l-.692 1.283V64.8s.715-.293.715-.507-.26-.272-.556-.31-2.582-.194-2.582-.194"/>
		<path d="M58.227 64.139a20.016 20.016 0 0 1-1.435 4.728 6.918 6.918 0 0 0 2.063-1.267 14.473 14.473 0 0 0 1.342-2.061c.091-.066.33-.147.457-.222s.267-.238.146-.35c-.049-.044-.065-.09-.8-.31-.829-.246-1.773-.518-1.773-.518M61.404 63.986a11.261 11.261 0 0 0 .528 3.306 10.75 10.75 0 0 0 1.194 1.761c.172.193.633.71.762.154s.3-2.149.762-1.915l.384-.351a10.779 10.779 0 0 1-3.63-2.955M58.962 68.751a30.624 30.624 0 0 1-.934 4.639h-1.287s.449 2.37.512 2.618.184.4.339.4.384-.115.485-.7l4.17-1.6.353 2.124s1.552-.154 1.909-.8a1.83 1.83 0 0 0 .077-1.517 4.126 4.126 0 0 0-.7-1.23 15.213 15.213 0 0 0-2.115-2.139l-.5.3a14.243 14.243 0 0 1 .748 2.343l-2.654.144s1.722-2.93 1.826-3.11.172-.325.315-.36.434-.118.491-.263-.1-.259-.294-.3-2.745-.544-2.745-.544M80.66 71.226c-.16-.117-1.934-1.569-1.934-1.569l-.826 1.466h-.607v-3.227h2.669c.288 0 .46.025.5-.117s0-.246-.251-.439-1.706-1.325-1.706-1.325l-.8 1.3h-.4v-2.456c0-.087.056-.179.239-.245s.46-.192.46-.3-.056-.259-.328-.3-2.774-.286-2.774-.286v3.562h-2.337v-2.181a.24.24 0 0 1 .142-.271c.16-.09.459-.222.459-.4s-.222-.233-.379-.246-2.742-.3-2.742-.3v3.377h-2.166l-.2.6h2.352v3.208h-2.508l-.215.624h2.623a9.64 9.64 0 0 1-.544 2.285 4.242 4.242 0 0 1-1.763 2.173s2.719-.622 3.705-1.764a4.931 4.931 0 0 0 1.049-2.708h2.473s-.042 4.051-.042 4.383c0 .306.016.617.592.617h1.105a.693.693 0 0 0 .759-.7v-4.228h3.048c.384 0 .474-.025.528-.141s-.027-.274-.182-.39m-5.781-.13h-2.473c.055-.608.16-3.188.16-3.188h2.338ZM87.139 63.943l-.66 1.127h-2.588l-.171.571h4.874c.211 0 .25.015.3-.079s-.067-.167-.173-.271-1.587-1.348-1.587-1.348M87.478 65.666l-.6 1.065h-3.442l-.211.543s5.229.051 5.506.051c.113 0 .234.012.289-.09a.205.205 0 0 0-.081-.272c-.111-.094-1.457-1.3-1.457-1.3M86.982 67.548l-.671 1.152h-2.4l-.2.568h4.615c.223 0 .261.015.329-.076s0-.183-.12-.286-1.551-1.358-1.551-1.358M86.982 69.45l-.671 1.153h-2.4l-.2.568h4.615c.223 0 .261.015.329-.076s0-.181-.12-.284-1.551-1.362-1.551-1.362M88.517 72.937l-1.577-1.192-.528.8h-.867v-.1l-1.945-.377v4.146c0 .207 0 .377.237.377h.855c.171 0 .828-.028.828-.39v-.441h.8v.22c0 .13-.023.441.38.441h.7c.225 0 .894-.04.894-.465v-2.2c0-.117-.038-.117.1-.2s.29-.167.329-.3-.077-.222-.21-.324m-2.183 2.229h-.8v-2.017l.8-.013Z"/>
		<path d="M89.615 67.715v8.006h-.776l-.209.634h8.057c.171 0 .29.021.355-.09a.2.2 0 0 0-.067-.22c-.063-.065-1.588-1.8-1.588-1.8l-.7 1.5h-.223v-5.321s1.775.01 2.035.01.353 0 .4-.067c.065-.09-.017-.178-.07-.255-.071-.1-1.366-1.751-1.366-1.751l-.787 1.454h-.161v-3.926h2.129c.2 0 .238.012.292-.079s0-.144-.107-.272-1.579-1.71-1.579-1.71l-1.024 1.49h-4.952l-.224.6h3.048v9.813h-.867v-7.149c0-.078.065-.129.236-.208s.287-.129.3-.258-.17-.17-.3-.21-1.855-.192-1.855-.192M109.268 69.333h3.066c.191 0 .221 0 .287-.1s-.018-.2-.107-.272c-.106-.093-1.8-1.49-1.8-1.49l-.734 1.255h-1.4a9.406 9.406 0 0 1-1-1.334s4.363.028 4.628.028.366 0 .419-.093a.231.231 0 0 0-.081-.3c-.1-.078-1.629-1.336-1.629-1.336l-.853 1.128h-1.09a10.652 10.652 0 0 0 1.444-1.3c.131-.167.2-.14.3-.182s.316-.1.33-.205-.038-.169-.225-.208-2.417-.672-2.417-.672a15.588 15.588 0 0 1-.8 2.538h-1.096a15.582 15.582 0 0 0 .551-1.594c.041-.195.132-.143.262-.208s.329-.205.342-.336-.092-.272-.554-.337-2.414-.311-2.414-.311a22.055 22.055 0 0 1-.607 2.774h-.83s.488-.325.5-.727a1.286 1.286 0 0 0-.878-1.232 12.018 12.018 0 0 0-2.107-.36 11.508 11.508 0 0 1 1.173 2.292h-1.711l-.2.609h3.84a5.483 5.483 0 0 1-.67 1.323h-3.34l-.186.567h3.17a9.528 9.528 0 0 1-3.207 3.136 7.119 7.119 0 0 0 2.733-.646h1.6a5.529 5.529 0 0 1-3.863 4.483s2.97-.259 4.312-1.23a5.314 5.314 0 0 0 1.905-3.213h1.774s-.014 1.747-.094 2.049-.209.608-.7.608h-1.777l.568.58a.653.653 0 0 1 .54.222c.155.244.171.167.207 1.593a4.984 4.984 0 0 0 2.236-.259c.871-.414 1.354-1.463 1.354-3.952a7.959 7.959 0 0 0 .88.4c.314.106.42.146.46-.063s.222-1.622.828-1.566l.392-.546a11.73 11.73 0 0 1-3.745-1.518m-3-1.957h.41a9.031 9.031 0 0 0 .5 1.324h-1.643a8.9 8.9 0 0 0 .737-1.324m2.051 3.811h-5.139a11.847 11.847 0 0 0 1.958-1.879h2.327a6.364 6.364 0 0 0 1.09 1.607Z"/>
	</g>
	<g clip-path="url(#b)" transform="translate(0 18.107)">
		<path fill="url(#c)" d="M0 0h163.481v41.396H0z"/>
	</g>
	<g clip-path="url(#a)">
		<path d="M1.593.126h1.23v2.1h1.1v1.16h-1.1V5.05c.416-.148.6-.216 1.006-.376l.08 1.129c-.5.239-.74.342-1.087.479v3.135c0 .684-.277.935-1.029.935a10.813 10.813 0 0 1-1.169-.079L.372 9.029a5.492 5.492 0 0 0 .913.079c.243 0 .313-.068.313-.319V6.738C.926 6.955.811 7 .372 7.126L.024 5.872a28.394 28.394 0 0 0 1.569-.423V3.386h-1.4V2.224h1.4ZM9.865 10.34a9.419 9.419 0 0 1-2.707-1.277 8.337 8.337 0 0 1-2.89 1.426l-.763-1.118a7.166 7.166 0 0 0 2.717-1.049 5.808 5.808 0 0 1-1.481-2.059h-.52V5.142h4.915l.612.547a8.114 8.114 0 0 1-1.7 2.574 11.209 11.209 0 0 0 2.509.912Zm-1.4-7.091c0 .251.046.285.359.285.439 0 .439 0 .485-1.219l1.087.353c-.047 1.071-.116 1.459-.29 1.664-.2.228-.647.33-1.445.33a2.016 2.016 0 0 1-1.068-.17.806.806 0 0 1-.359-.73V1.677H6.083v.2c0 1.687-.358 2.428-1.48 3.067l-.82-.935c.786-.33 1.075-.866 1.075-2.006V.563h3.607ZM5.956 6.263a5.393 5.393 0 0 0 1.156 1.364 5.3 5.3 0 0 0 1.04-1.364ZM14.2 3.728a13.936 13.936 0 0 0 2.926-1.6l.427.935a20.154 20.154 0 0 1-2.786 1.756Zm3.076-.035a4.843 4.843 0 0 0 2.085-.741 1.627 1.627 0 0 0 .579-1.288h-.647a5.385 5.385 0 0 1-.994 1.14l-.867-.729A4.663 4.663 0 0 0 18.791 0l1.249.205a4.088 4.088 0 0 1-.243.547h3.769l.624.479a8.1 8.1 0 0 1-1.075 1.642l-1.122-.353a4.122 4.122 0 0 0 .671-.855h-1.48c.312 1.035 1.318 1.675 3.318 2.085l-.625 1.027a5.1 5.1 0 0 1-.74-.217v4.013H21.23a28.57 28.57 0 0 1 3.134.9l-1.006 1A23.391 23.391 0 0 0 19.901 9.2l.786-.627h-2.74l.844.65a21.117 21.117 0 0 1-3.607 1.356l-.823-1.072a20.742 20.742 0 0 0 3.284-.935h-1.86V4.309h1.908ZM16.49 2.3a9.914 9.914 0 0 0-1.815-1.174L15.426.3a8.864 8.864 0 0 1 1.873 1.071Zm.543 3.2h4.856v-.49h-4.856Zm4.856.661h-4.856v.49h4.856Zm0 1.152h-4.856v.524h4.856Zm.6-3.009a4.31 4.31 0 0 1-1.792-1.357 2.99 2.99 0 0 1-1.756 1.362ZM29.525 1.756c.694.035.96.046 1.365.046.15 0 .231 0 .774-.012a13.586 13.586 0 0 0 .569-1.676L33.505.4c-.232.638-.336.889-.509 1.322.925-.068 1.688-.16 2.659-.319l.116 1.174a32.164 32.164 0 0 1-3.33.353 13.336 13.336 0 0 1-.647 1.186 2.789 2.789 0 0 1 1.515-.524c.74 0 1.237.421 1.584 1.311.671-.286 1.5-.6 2.336-.878l.623 1.142c-1.018.32-1.966.639-2.521.867l-.173.069a12.662 12.662 0 0 1 .067 1.664l-1.26.09c-.012-.8-.023-.912-.035-1.219-1.133.57-1.734 1.106-1.734 1.517 0 .512.647.752 2.012.752a18.546 18.546 0 0 0 2.752-.228l.1 1.345a23.85 23.85 0 0 1-2.613.16 6.058 6.058 0 0 1-2.555-.387 1.561 1.561 0 0 1-1.052-1.46 2.527 2.527 0 0 1 1.249-2 10.855 10.855 0 0 1 1.688-.935.76.76 0 0 0-.752-.672c-.728 0-1.85.866-3.006 2.337l-.914-.8a19.015 19.015 0 0 0 2.03-3.28c-.543.012-.578.012-.786.012-.186 0-.44 0-.8-.012ZM46.576.251h1.307l.023 1.6a35.89 35.89 0 0 0 2.821-.285l.07 1.219a39.048 39.048 0 0 1-2.567.239l-.312.023.01 1.079a30.262 30.262 0 0 0 2.451-.274l.058 1.209c-.694.091-1.688.194-2.5.239l.023 1.652a11.746 11.746 0 0 1 3.064 1.505l-.749 1.21a14.567 14.567 0 0 0-2.3-1.391v.182c-.012 1.14-.682 1.664-2.093 1.664a4.8 4.8 0 0 1-1.9-.376 1.706 1.706 0 0 1-1.041-1.47 1.482 1.482 0 0 1 1.045-1.39l.092-.034a4.535 4.535 0 0 1 1.607-.274 7.075 7.075 0 0 1 1.006.08l-.012-1.3c-.763.034-1.642.057-2.4.057-.116 0-.416 0-.729-.012V4.226a37.8 37.8 0 0 0 3.111-.024l-.023-1.094c-1.735.08-1.908.08-2.983.08-.092 0-.4 0-.728-.012v-1.25c.728.023 1.064.034 1.653.034a40.7 40.7 0 0 0 2.035-.046Zm.15 7.569a4.953 4.953 0 0 0-1.26-.16 2.579 2.579 0 0 0-.832.114c-.312.171-.428.308-.428.524 0 .4.543.673 1.33.673.809 0 1.191-.3 1.191-.912ZM58.522.672v6.179c0 1.253.382 1.812 1.249 1.812 1.33 0 2.348-.844 3.365-2.782l1.018 1.118a7.832 7.832 0 0 1-1.978 2.382 3.885 3.885 0 0 1-2.474.786c-1.747 0-2.613-1.037-2.613-3.112V.672Zm3.4 3.033a8.909 8.909 0 0 0-1.179-1.676l.786-.524a8.671 8.671 0 0 1 1.18 1.641Zm1.376-.935a8.339 8.339 0 0 0-1.191-1.607l.752-.559a9.853 9.853 0 0 1 1.237 1.607ZM73.149 8.858c-.231-.33-.289-.433-.4-.627a3.055 3.055 0 0 1-2.039 1.258 1.4 1.4 0 0 1-1.2-.706 3.246 3.246 0 0 1-.5-1.778 4.615 4.615 0 0 1 1.607-3.329 27.7 27.7 0 0 1-.636-2.018l1.156-.536c.174.753.278 1.129.486 1.825a6.034 6.034 0 0 1 2.463-.73c.161-.82.2-1.094.289-1.835l1.329.286c-.139.832-.2 1.174-.3 1.619a5.193 5.193 0 0 1 1.7.593 3.348 3.348 0 0 1 1.631 2.975 3.783 3.783 0 0 1-1.353 3.089 5.33 5.33 0 0 1-2.623 1.224l-.685-1.219a4.519 4.519 0 0 0 2.266-1.026 2.58 2.58 0 0 0 .994-2.086 2.413 2.413 0 0 0-1.4-2.211 3.032 3.032 0 0 0-.8-.228 13.972 13.972 0 0 1-1.58 3.761 7.677 7.677 0 0 0 .509.764Zm-2.3-.719c.266 0 .717-.376 1.249-1.048a19.249 19.249 0 0 1-.994-2.132 3.4 3.4 0 0 0-.845 2.052 1.7 1.7 0 0 0 .173.786c.128.251.243.342.416.342m2.011-2.2a12 12 0 0 0 .96-2.576 4.012 4.012 0 0 0-1.8.707 16.743 16.743 0 0 0 .818 1.819ZM83.773 9.917a24.728 24.728 0 0 1-.393-4.092 21.753 21.753 0 0 1 .717-5.153l1.353.353a22.834 22.834 0 0 0-.741 5.483c0 .342.012.581.035 1.06.254-.422.509-.832.705-1.128l.566.809a4.388 4.388 0 0 0-.925 2.258 1.653 1.653 0 0 0 .012.216Zm8.395-.547c-.844.069-1.515.1-2.1.1-2.579 0-3.376-.6-3.376-2.565 0-.1 0-.262.012-.467l1.283-.114c-.012.182-.012.285-.012.353 0 .741.162 1.105.555 1.231a5.894 5.894 0 0 0 1.422.137 16.247 16.247 0 0 0 2.174-.16Zm-5.284-7.307a24.88 24.88 0 0 1 4.729-.433l.058 1.345a24.162 24.162 0 0 0-4.637.433ZM97.288 10.451a11.236 11.236 0 0 0-2.139-2.565l1.145-.958a13.469 13.469 0 0 1 2.22 2.451ZM106.803.445h1.26v1.778a13.425 13.425 0 0 0 1.816-.354l.092 1.266c-.717.148-1.052.2-1.908.319v1.437a8.273 8.273 0 0 1 2.035-.251c1.8 0 3.053 1.026 3.053 2.5 0 1.733-1.388 2.8-3.908 3.021l-.555-1.243c2.255-.217 3.11-.707 3.11-1.8 0-.82-.717-1.334-1.851-1.334a6.576 6.576 0 0 0-1.884.3v2.77a1.08 1.08 0 0 1-1.179 1.231 2.686 2.686 0 0 1-1.961-.816 1.556 1.556 0 0 1-.451-1.129c.069-1.094.867-2.04 2.335-2.781V3.591c-.543.057-1.365.114-1.9.114V2.429c.589 0 1.237-.023 1.9-.069Zm.023 6.167a2.012 2.012 0 0 0-1.168 1.551.636.636 0 0 0 .277.524 1.24 1.24 0 0 0 .59.228c.2 0 .3-.148.3-.422Zm6.059-2.61a14.95 14.95 0 0 0-2.417-1.96l.809-.981a13.158 13.158 0 0 1 2.428 1.87ZM122.203 4.993a16.814 16.814 0 0 0 2.439-.16v1.323a18.543 18.543 0 0 1-2.451.125h-.127c-.07.6-.1.992-.1 1.174 0 1.037.613 1.573 1.8 1.573s1.769-.546 1.769-1.71a5.11 5.11 0 0 0-.22-1.539l1.376-.125a6.414 6.414 0 0 1 .231 1.71c0 1.984-1.133 3.055-3.237 3.055-1.977 0-3.076-1-3.076-2.8a13.348 13.348 0 0 1 .115-1.379 29.662 29.662 0 0 1-1.85-.16l.139-1.311c.774.1 1.249.148 1.85.182.034-.262.069-.513.081-.6.046-.467.058-.547.07-.661l.012-.08.011-.057a22.985 22.985 0 0 1-2.243-.182l.162-1.265a21.054 21.054 0 0 0 2.231.2l.116-1 .034-.286.1-.809 1.342.1-.116.889-.023.251-.115.878a30.183 30.183 0 0 0 2.463-.137v1.285a35.844 35.844 0 0 1-2.613.091ZM134.437.672v6.179c0 1.254.381 1.812 1.249 1.812 1.33 0 2.347-.844 3.365-2.781l1.018 1.119a7.847 7.847 0 0 1-1.978 2.383 3.885 3.885 0 0 1-2.474.786c-1.747 0-2.613-1.037-2.613-3.112V.672ZM148.023 4.766a4.735 4.735 0 0 1 1.873-.376c1.758 0 2.983 1.014 2.983 2.474 0 2.166-1.9 3.283-5.735 3.374l-.508-1.345c3.2-.023 4.8-.707 4.8-2.029 0-.821-.647-1.323-1.711-1.323-1.341 0-2.856.741-4.66 2.292l-.809-.992a69.574 69.574 0 0 0 4.752-4.8 34.35 34.35 0 0 1-3.353.387l-.254-1.379a37.362 37.362 0 0 0 5.064-.364l.694.889ZM162.245 10.465c-.705-.844-1.018-1.219-1.619-1.9-.347-.387-1.121-1.231-2.323-2.542-.347-.377-.44-.57-.44-.867 0-.342.081-.479.636-1a25.134 25.134 0 0 0 3.388-3.951l1.214.9a36.7 36.7 0 0 1-3.156 3.523c-.266.251-.347.387-.347.559s.034.205.427.6c.555.536 1.711 1.744 2.937 3.044l.52.559ZM169.517 8.724a1.723 1.723 0 1 1-1.711-1.7 1.733 1.733 0 0 1 1.711 1.7m-2.6 0a.873.873 0 0 0 1.746 0 .873.873 0 0 0-1.746 0"/>
	</g>
</svg>
