<svg width="1030" height="624" viewBox="0 0 1030 624" fill="none" xmlns="http://www.w3.org/2000/svg">
<path d="M408.593 353.117H392.74V272.014H416.323L437.023 336.87L457.592 272.014H481.174V353.117H464.798V292.978L445.801 353.117H428.114L408.593 292.585V353.117ZM516.286 353.117H499.516V272.014H516.286V353.117ZM550.874 353.117H534.759V272.014H554.542L586.902 330.843V272.014H603.017V353.117H583.234L550.874 294.55V353.117ZM638.26 353.117H621.49V272.014H638.26V353.117ZM757.351 382.99H680.446C684.507 373.425 687.783 363.468 690.272 353.117H787.353L813.032 327.436H694.333C694.726 322.458 694.988 317.479 694.988 312.5C694.988 307.521 694.726 302.542 694.333 297.564H842.903L868.581 271.883H690.272C687.914 261.532 684.638 251.575 680.446 242.01H898.321L924 216.33H666.821C634.984 166.28 579.042 133 515.369 133C451.827 133 395.885 166.28 364.048 216.33H107L132.548 242.01H350.554C346.493 251.575 343.217 261.532 340.728 271.883H162.419L187.966 297.564H336.667C336.274 302.542 336.012 307.521 336.012 312.5C336.012 317.479 336.274 322.458 336.667 327.436H217.968L243.516 353.117H340.597C342.955 363.468 346.231 373.425 350.423 382.99H273.387L298.935 408.67H363.917C395.754 458.72 451.696 492 515.238 492C578.779 492 634.722 458.72 666.69 408.67H731.672L757.351 382.99ZM515.5 466.32C430.734 466.32 361.69 397.271 361.69 312.5C361.69 227.729 430.734 158.68 515.5 158.68C600.266 158.68 669.31 227.729 669.31 312.5C669.31 397.271 600.266 466.32 515.5 466.32Z" fill="black"/>
</svg>
