<?xml version="1.0" encoding="utf-8"?>
<!-- Generator: Adobe Illustrator 19.2.1, SVG Export Plug-In . SVG Version: 6.00 Build 0)  -->
<svg version="1.1" id="layer" xmlns="http://www.w3.org/2000/svg" xmlns:xlink="http://www.w3.org/1999/xlink" x="0px" y="0px"
	 viewBox="0 0 652 652" style="enable-background:new 0 0 652 652;" xml:space="preserve">
<path d="M245.4,357.6h-12.1v-61.9h18l15.8,49.5l15.7-49.5h18v61.9h-12.5v-45.9l-14.5,45.9h-13.5l-14.9-46.2V357.6 M327.6,357.6
	h-12.8v-61.9h12.8V357.6z M354,357.6h-12.3v-61.9h15.1l24.7,44.9v-44.9h12.3v61.9h-15.1L354,312.9V357.6z M420.7,357.6h-12.8v-61.9
	h12.8V357.6z M511.6,380.4h-58.7c3.1-7.3,5.6-14.9,7.5-22.8h74.1l19.6-19.6h-90.6c0.3-3.8,0.5-7.6,0.5-11.4c0-3.8-0.2-7.6-0.5-11.4
	h113.4l19.6-19.6H460.4c-1.8-7.9-4.3-15.5-7.5-22.8h166.3l19.6-19.6H442.5c-24.3-38.2-67-63.6-115.6-63.6
	c-48.5,0-91.2,25.4-115.5,63.6H15.2l19.5,19.6h166.4c-3.1,7.3-5.6,14.9-7.5,22.8H57.5l19.5,19.6h113.5c-0.3,3.8-0.5,7.6-0.5,11.4
	c0,3.8,0.2,7.6,0.5,11.4H99.9l19.5,19.6h74.1c1.8,7.9,4.3,15.5,7.5,22.8h-58.8l19.5,19.6h49.6c24.3,38.2,67,63.6,115.5,63.6
	c48.5,0,91.2-25.4,115.6-63.6h49.6L511.6,380.4z M327,444c-64.7,0-117.4-52.7-117.4-117.4c0-64.7,52.7-117.4,117.4-117.4
	c64.7,0,117.4,52.7,117.4,117.4C444.4,391.3,391.7,444,327,444"/>
</svg>
