<svg clip-rule="evenodd" fill-rule="evenodd" stroke-linejoin="round" stroke-miterlimit="2" viewBox="0 0 560 400" xmlns="http://www.w3.org/2000/svg"><path d="m46.16 18.26c3.06 4.64 7.28 10.1 11.91 16h-10.54c-3.53-5.56-8.29-12.15-12.14-16.93 5.16-1.15 9.35-3.31 9.35-7.47 0-3-2.16-5.36-7.33-5.36-2.05 0-3.76.14-5.16.14-.14 4.11-.19 8.37-.19 12.62 0 5.8.32 11.59.54 17h-7.6c-5.697-7.975-11.854-15.612-18.44-22.87-.1 5.94.06 14.75.71 22.86h-7.27c.24-5.4.55-11.19.55-17s-.31-11.58-.55-16.98h8.78c5.252 7.377 10.904 14.461 16.93 21.22 0-5.86-.12-13.83-.73-21.22 4.17.09 10.33-.27 15.35-.27s9.16.4 11.87 3.09c1.446 1.5 2.216 3.528 2.13 5.61 0 3.98-3.03 7.68-8.17 9.56zm21.84-17.99c-.24 5.4-.56 11.2-.56 17s.32 11.59.56 17h-9.16c.23-5.4.56-11.19.56-17s-.33-11.59-.56-17z" fill="#005bac" fill-rule="nonzero" transform="matrix(5.29412 0 0 5.29412 100 109.285)"/></svg>