<svg width="1030" height="624" viewBox="0 0 1030 624" fill="none" xmlns="http://www.w3.org/2000/svg">
<path d="M466.503 71L233.93 454.512H325.096H463.666H560.463H699.033H795.558L567.759 71L516.929 154.862L466.503 71ZM438.035 143.287L482.714 213.581L342.539 442.545H257.17L438.035 143.287ZM593.287 143.287L773.31 442.545H687.546L559.333 228.793L525.019 287.334L573.453 368.9H459.055L593.287 143.287Z" fill="#1A9431"/>
<path d="M189 496.492V487.436H231.493V496.492H215.653V539.389H204.84V496.492H189ZM250.194 540.15C246.27 540.15 242.876 539.313 240.013 537.639C237.167 535.947 234.969 533.597 233.42 530.586C231.87 527.559 231.095 524.049 231.095 520.058C231.095 516.033 231.87 512.515 233.42 509.505C234.969 506.479 237.167 504.127 240.013 502.454C242.876 500.763 246.27 499.916 250.194 499.916C254.119 499.916 257.504 500.763 260.35 502.454C263.214 504.127 265.42 506.479 266.969 509.505C268.519 512.515 269.294 516.033 269.294 520.058C269.294 524.049 268.519 527.559 266.969 530.586C265.42 533.597 263.214 535.947 260.35 537.639C257.504 539.313 254.119 540.15 250.194 540.15ZM250.245 531.778C252.03 531.778 253.521 531.271 254.717 530.256C255.912 529.224 256.813 527.822 257.42 526.045C258.043 524.269 258.355 522.248 258.355 519.983C258.355 517.716 258.043 515.695 257.42 513.919C256.813 512.144 255.912 510.74 254.717 509.708C253.521 508.677 252.03 508.16 250.245 508.16C248.443 508.16 246.927 508.677 245.698 509.708C244.485 510.74 243.567 512.144 242.944 513.919C242.337 515.695 242.034 517.716 242.034 519.983C242.034 522.248 242.337 524.269 242.944 526.045C243.567 527.822 244.485 529.224 245.698 530.256C246.927 531.271 248.443 531.778 250.245 531.778ZM281.685 554C280.321 554 279.041 553.89 277.845 553.67C276.666 553.468 275.689 553.206 274.915 552.885L277.34 544.818C278.603 545.207 279.74 545.418 280.751 545.451C281.778 545.485 282.662 545.249 283.403 544.741C284.161 544.234 284.776 543.371 285.248 542.154L285.879 540.504L271.959 500.423H283.277L291.311 529.039H291.715L299.825 500.423H311.218L296.136 543.599C295.412 545.697 294.427 547.523 293.18 549.079C291.951 550.652 290.393 551.861 288.507 552.707C286.62 553.569 284.346 554 281.685 554ZM326.749 540.124C324.273 540.124 322.067 539.694 320.13 538.831C318.193 537.952 316.661 536.658 315.532 534.949C314.421 533.225 313.864 531.076 313.864 528.506C313.864 526.341 314.261 524.523 315.052 523.052C315.844 521.581 316.922 520.396 318.286 519.501C319.65 518.604 321.2 517.928 322.935 517.47C324.686 517.014 326.522 516.693 328.441 516.507C330.699 516.27 332.517 516.05 333.899 515.848C335.279 515.628 336.282 515.307 336.905 514.883C337.529 514.46 337.839 513.835 337.839 513.006V512.854C337.839 511.247 337.334 510.004 336.325 509.125C335.33 508.245 333.915 507.806 332.079 507.806C330.143 507.806 328.602 508.237 327.456 509.1C326.311 509.945 325.553 511.011 325.183 512.295L315.23 511.483C315.734 509.116 316.728 507.07 318.209 505.345C319.692 503.604 321.604 502.267 323.945 501.337C326.303 500.39 329.031 499.916 332.13 499.916C334.286 499.916 336.349 500.17 338.319 500.677C340.307 501.184 342.067 501.971 343.6 503.036C345.149 504.102 346.371 505.472 347.263 507.146C348.156 508.803 348.602 510.791 348.602 513.107V539.389H338.396V533.986H338.092C337.47 535.203 336.635 536.277 335.591 537.207C334.547 538.121 333.293 538.839 331.828 539.364C330.362 539.871 328.669 540.124 326.749 540.124ZM329.832 532.667C331.414 532.667 332.813 532.354 334.025 531.727C335.238 531.084 336.189 530.223 336.88 529.14C337.571 528.058 337.916 526.831 337.916 525.461V521.326C337.579 521.546 337.115 521.75 336.526 521.935C335.954 522.105 335.305 522.265 334.58 522.417C333.856 522.553 333.133 522.68 332.408 522.798C331.684 522.899 331.027 522.993 330.438 523.077C329.175 523.263 328.071 523.559 327.128 523.965C326.185 524.371 325.452 524.92 324.93 525.614C324.408 526.29 324.147 527.136 324.147 528.151C324.147 529.623 324.678 530.746 325.738 531.525C326.816 532.286 328.18 532.667 329.832 532.667ZM356.952 539.389V500.423H367.208V507.299H367.664C368.471 505.016 369.819 503.215 371.705 501.895C373.592 500.576 375.848 499.916 378.476 499.916C381.137 499.916 383.403 500.584 385.272 501.921C387.142 503.239 388.388 505.032 389.011 507.299H389.416C390.206 505.067 391.639 503.282 393.71 501.945C395.798 500.592 398.266 499.916 401.112 499.916C404.733 499.916 407.672 501.074 409.929 503.392C412.203 505.692 413.34 508.956 413.34 513.184V539.389H402.603V515.315C402.603 513.15 402.03 511.526 400.885 510.443C399.739 509.362 398.308 508.821 396.59 508.821C394.636 508.821 393.112 509.446 392.018 510.698C390.922 511.933 390.375 513.565 390.375 515.594V539.389H379.941V515.087C379.941 513.176 379.394 511.654 378.3 510.52C377.222 509.387 375.799 508.821 374.03 508.821C372.834 508.821 371.756 509.125 370.796 509.733C369.853 510.325 369.103 511.163 368.548 512.244C367.992 513.311 367.713 514.562 367.713 515.999V539.389H356.952ZM432.907 540.124C430.43 540.124 428.224 539.694 426.288 538.831C424.35 537.952 422.818 536.658 421.689 534.949C420.577 533.225 420.022 531.076 420.022 528.506C420.022 526.341 420.417 524.523 421.209 523.052C422.001 521.581 423.078 520.396 424.443 519.501C425.807 518.604 427.356 517.928 429.091 517.47C430.843 517.014 432.68 516.693 434.599 516.507C436.856 516.27 438.675 516.05 440.056 515.848C441.437 515.628 442.44 515.307 443.062 514.883C443.685 514.46 443.997 513.835 443.997 513.006V512.854C443.997 511.247 443.492 510.004 442.481 509.125C441.487 508.245 440.073 507.806 438.237 507.806C436.3 507.806 434.759 508.237 433.614 509.1C432.469 509.945 431.711 511.011 431.34 512.295L421.386 511.483C421.892 509.116 422.885 507.07 424.367 505.345C425.85 503.604 427.761 502.267 430.102 501.337C432.459 500.39 435.189 499.916 438.287 499.916C440.444 499.916 442.507 500.17 444.477 500.677C446.465 501.184 448.224 501.971 449.756 503.036C451.306 504.102 452.528 505.472 453.42 507.146C454.312 508.803 454.759 510.791 454.759 513.107V539.389H444.552V533.986H444.25C443.626 535.203 442.793 536.277 441.749 537.207C440.705 538.121 439.449 538.839 437.984 539.364C436.518 539.871 434.826 540.124 432.907 540.124ZM435.989 532.667C437.572 532.667 438.97 532.354 440.182 531.727C441.394 531.084 442.347 530.223 443.037 529.14C443.727 528.058 444.073 526.831 444.073 525.461V521.326C443.735 521.546 443.273 521.75 442.683 521.935C442.11 522.105 441.461 522.265 440.738 522.417C440.014 522.553 439.289 522.68 438.565 522.798C437.841 522.899 437.185 522.993 436.595 523.077C435.331 523.263 434.228 523.559 433.286 523.965C432.342 524.371 431.61 524.92 431.087 525.614C430.566 526.29 430.304 527.136 430.304 528.151C430.304 529.623 430.835 530.746 431.896 531.525C432.974 532.286 434.338 532.667 435.989 532.667ZM479.777 539.389V487.436H500.189C504.113 487.436 507.457 488.189 510.219 489.693C512.981 491.182 515.087 493.254 516.534 495.908C518.001 498.547 518.733 501.591 518.733 505.04C518.733 508.491 517.991 511.534 516.509 514.173C515.028 516.811 512.88 518.866 510.067 520.337C507.272 521.809 503.886 522.545 499.911 522.545H486.901V513.742H498.142C500.248 513.742 501.983 513.378 503.347 512.651C504.729 511.907 505.756 510.883 506.429 509.582C507.12 508.262 507.465 506.749 507.465 505.04C507.465 503.315 507.12 501.811 506.429 500.525C505.756 499.223 504.729 498.217 503.347 497.507C501.966 496.779 500.215 496.416 498.092 496.416H490.715V539.389H479.777ZM525.636 539.389V500.423H536.069V507.222H536.474C537.182 504.804 538.369 502.977 540.035 501.743C541.703 500.492 543.624 499.866 545.797 499.866C546.336 499.866 546.916 499.9 547.54 499.967C548.162 500.034 548.709 500.128 549.181 500.246V509.835C548.676 509.682 547.977 509.548 547.084 509.43C546.192 509.311 545.375 509.251 544.634 509.251C543.051 509.251 541.636 509.599 540.39 510.292C539.16 510.968 538.183 511.915 537.459 513.133C536.752 514.35 536.398 515.754 536.398 517.344V539.389H525.636ZM570.624 540.15C566.632 540.15 563.196 539.338 560.316 537.714C557.453 536.074 555.246 533.758 553.697 530.764C552.147 527.753 551.373 524.193 551.373 520.083C551.373 516.076 552.147 512.558 553.697 509.531C555.246 506.504 557.428 504.145 560.241 502.454C563.07 500.763 566.388 499.916 570.194 499.916C572.754 499.916 575.137 500.331 577.344 501.16C579.567 501.971 581.504 503.197 583.154 504.837C584.822 506.479 586.119 508.541 587.045 511.027C587.971 513.496 588.434 516.389 588.434 519.703V522.671H555.668V515.974H578.304C578.304 514.418 577.966 513.04 577.293 511.839C576.62 510.639 575.684 509.7 574.489 509.023C573.311 508.331 571.937 507.983 570.371 507.983C568.737 507.983 567.288 508.364 566.026 509.125C564.779 509.869 563.802 510.875 563.095 512.144C562.388 513.396 562.025 514.79 562.009 516.329V522.696C562.009 524.625 562.363 526.29 563.07 527.694C563.794 529.098 564.813 530.18 566.127 530.941C567.44 531.702 568.998 532.083 570.8 532.083C571.996 532.083 573.092 531.914 574.085 531.575C575.078 531.237 575.929 530.73 576.637 530.054C577.344 529.377 577.883 528.548 578.254 527.567L588.207 528.227C587.702 530.628 586.666 532.726 585.1 534.519C583.55 536.294 581.545 537.681 579.087 538.678C576.645 539.659 573.824 540.15 570.624 540.15ZM616.326 500.423V508.541H592.375V500.423H616.326ZM597.857 539.389V497.608C597.857 494.784 598.405 492.442 599.501 490.582C600.611 488.72 602.127 487.326 604.047 486.396C605.968 485.466 608.148 485 610.59 485C612.242 485 613.748 485.126 615.112 485.381C616.494 485.635 617.521 485.863 618.194 486.066L616.275 494.184C615.854 494.048 615.332 493.921 614.708 493.803C614.102 493.685 613.479 493.625 612.84 493.625C611.255 493.625 610.153 493.997 609.529 494.741C608.906 495.468 608.594 496.492 608.594 497.81V539.389H597.857ZM639.195 540.15C635.203 540.15 631.768 539.338 628.888 537.714C626.024 536.074 623.819 533.758 622.269 530.764C620.719 527.753 619.944 524.193 619.944 520.083C619.944 516.076 620.719 512.558 622.269 509.531C623.819 506.504 626 504.145 628.812 502.454C631.642 500.763 634.959 499.916 638.765 499.916C641.325 499.916 643.708 500.331 645.915 501.16C648.138 501.971 650.076 503.197 651.726 504.837C653.393 506.479 654.69 508.541 655.616 511.027C656.543 513.496 657.007 516.389 657.007 519.703V522.671H624.239V515.974H646.876C646.876 514.418 646.539 513.04 645.865 511.839C645.191 510.639 644.256 509.7 643.06 509.023C641.882 508.331 640.508 507.983 638.942 507.983C637.308 507.983 635.861 508.364 634.597 509.125C633.35 509.869 632.374 510.875 631.666 512.144C630.959 513.396 630.598 514.79 630.58 516.329V522.696C630.58 524.625 630.934 526.29 631.642 527.694C632.365 529.098 633.385 530.18 634.698 530.941C636.011 531.702 637.57 532.083 639.371 532.083C640.567 532.083 641.663 531.914 642.656 531.575C643.65 531.237 644.501 530.73 645.208 530.054C645.915 529.377 646.454 528.548 646.825 527.567L656.778 528.227C656.273 530.628 655.238 532.726 653.671 534.519C652.121 536.294 650.118 537.681 647.658 538.678C645.216 539.659 642.395 540.15 639.195 540.15ZM681.561 540.15C677.587 540.15 674.168 539.304 671.305 537.612C668.459 535.905 666.269 533.538 664.736 530.51C663.22 527.482 662.463 523.998 662.463 520.058C662.463 516.068 663.229 512.566 664.762 509.556C666.311 506.528 668.51 504.169 671.355 502.478C674.202 500.771 677.587 499.916 681.511 499.916C684.897 499.916 687.862 500.533 690.404 501.768C692.947 503.003 694.961 504.737 696.442 506.969C697.924 509.202 698.741 511.823 698.893 514.833H688.737C688.45 512.887 687.692 511.324 686.463 510.14C685.25 508.939 683.659 508.339 681.689 508.339C680.021 508.339 678.564 508.795 677.317 509.708C676.088 510.604 675.129 511.915 674.438 513.64C673.747 515.366 673.402 517.454 673.402 519.906C673.402 522.392 673.739 524.507 674.413 526.249C675.103 527.991 676.071 529.318 677.317 530.231C678.564 531.145 680.021 531.601 681.689 531.601C682.917 531.601 684.021 531.347 684.998 530.84C685.991 530.333 686.808 529.597 687.448 528.632C688.105 527.651 688.535 526.477 688.737 525.107H698.893C698.724 528.083 697.916 530.704 696.467 532.97C695.036 535.219 693.056 536.979 690.531 538.247C688.004 539.515 685.015 540.15 681.561 540.15ZM726.423 500.423V508.541H703.054V500.423H726.423ZM708.36 491.089H719.123V527.415C719.123 528.412 719.273 529.191 719.577 529.749C719.881 530.29 720.301 530.671 720.84 530.891C721.397 531.11 722.036 531.22 722.761 531.22C723.266 531.22 723.77 531.178 724.277 531.094C724.781 530.992 725.169 530.915 725.438 530.864L727.131 538.906C726.592 539.075 725.834 539.271 724.857 539.49C723.88 539.727 722.692 539.871 721.296 539.922C718.702 540.023 716.428 539.676 714.474 538.882C712.537 538.086 711.029 536.851 709.951 535.178C708.874 533.503 708.344 531.389 708.36 528.835V491.089ZM758.318 522.798V500.423H769.081V539.389H758.748V532.311H758.344C757.468 534.594 756.011 536.43 753.973 537.816C751.952 539.203 749.486 539.896 746.571 539.896C743.978 539.896 741.696 539.303 739.725 538.121C737.754 536.936 736.213 535.254 735.101 533.072C734.007 530.891 733.451 528.278 733.435 525.233V500.423H744.196V523.306C744.213 525.606 744.829 527.423 746.041 528.76C747.253 530.095 748.878 530.764 750.917 530.764C752.214 530.764 753.426 530.467 754.554 529.875C755.683 529.267 756.593 528.371 757.282 527.187C757.99 526.003 758.336 524.54 758.318 522.798ZM777.689 539.389V500.423H788.124V507.222H788.527C789.235 504.804 790.422 502.977 792.09 501.743C793.758 500.492 795.677 499.866 797.85 499.866C798.389 499.866 798.97 499.9 799.593 499.967C800.217 500.034 800.764 500.128 801.234 500.246V509.835C800.73 509.682 800.031 509.548 799.139 509.43C798.245 509.311 797.428 509.251 796.688 509.251C795.104 509.251 793.689 509.599 792.443 510.292C791.214 510.968 790.238 511.915 789.512 513.133C788.805 514.35 788.452 515.754 788.452 517.344V539.389H777.689ZM822.677 540.15C818.686 540.15 815.249 539.338 812.37 537.714C809.506 536.074 807.301 533.758 805.751 530.764C804.202 527.753 803.426 524.193 803.426 520.083C803.426 516.076 804.202 512.558 805.751 509.531C807.301 506.504 809.481 504.145 812.294 502.454C815.124 500.763 818.441 499.916 822.247 499.916C824.808 499.916 827.192 500.331 829.397 501.16C831.62 501.971 833.558 503.197 835.207 504.837C836.875 506.479 838.172 508.541 839.098 511.027C840.025 513.496 840.488 516.389 840.488 519.703V522.671H807.722V515.974H830.358C830.358 514.418 830.021 513.04 829.346 511.839C828.673 510.639 827.739 509.7 826.543 509.023C825.364 508.331 823.992 507.983 822.425 507.983C820.792 507.983 819.343 508.364 818.08 509.125C816.834 509.869 815.857 510.875 815.15 512.144C814.441 513.396 814.08 514.79 814.062 516.329V522.696C814.062 524.625 814.416 526.29 815.124 527.694C815.847 529.098 816.867 530.18 818.18 530.941C819.495 531.702 821.052 532.083 822.855 532.083C824.051 532.083 825.145 531.914 826.138 531.575C827.133 531.237 827.982 530.73 828.69 530.054C829.397 529.377 829.936 528.548 830.307 527.567L840.261 528.227C839.755 530.628 838.719 532.726 837.153 534.519C835.604 536.294 833.6 537.681 831.14 538.678C828.698 539.659 825.877 540.15 822.677 540.15Z" fill="#1A9431"/>
</svg>
