<svg width="520" height="433" viewBox="0 0 520 433" fill="none" xmlns="http://www.w3.org/2000/svg">
<path d="M215.374 0.0722504L0.225464 354.928L84.561 354.928H212.749H302.294H430.483L519.776 354.928L309.044 0.0722504L262.022 77.6679L215.374 0.0722504ZM189.039 66.9583L230.37 132L100.697 343.856H21.7238L189.039 66.9583ZM332.659 66.9583L499.195 343.856H419.856L301.249 146.075L269.506 200.242L314.311 275.713H208.484L332.659 66.9583Z" fill="#1A9431"/>
<path d="M19.8466 387.774V381.182H50.9062V387.774H39.3281V419H31.4247V387.774H19.8466ZM64.5756 419.554C61.7073 419.554 59.2267 418.945 57.1339 417.726C55.0534 416.495 53.4469 414.784 52.3143 412.592C51.1817 410.389 50.6154 407.834 50.6154 404.929C50.6154 401.999 51.1817 399.438 52.3143 397.247C53.4469 395.044 55.0534 393.332 57.1339 392.114C59.2267 390.883 61.7073 390.267 64.5756 390.267C67.444 390.267 69.9184 390.883 71.9989 392.114C74.0917 393.332 75.7044 395.044 76.837 397.247C77.9696 399.438 78.5359 401.999 78.5359 404.929C78.5359 407.834 77.9696 410.389 76.837 412.592C75.7044 414.784 74.0917 416.495 71.9989 417.726C69.9184 418.945 67.444 419.554 64.5756 419.554ZM64.6126 413.46C65.9175 413.46 67.007 413.091 67.881 412.352C68.7551 411.601 69.4137 410.58 69.8569 409.287C70.3124 407.994 70.5401 406.523 70.5401 404.874C70.5401 403.224 70.3124 401.753 69.8569 400.46C69.4137 399.168 68.7551 398.146 67.881 397.395C67.007 396.644 65.9175 396.268 64.6126 396.268C63.2953 396.268 62.1874 396.644 61.2887 397.395C60.4023 398.146 59.7314 399.168 59.2759 400.46C58.8327 401.753 58.6112 403.224 58.6112 404.874C58.6112 406.523 58.8327 407.994 59.2759 409.287C59.7314 410.58 60.4023 411.601 61.2887 412.352C62.1874 413.091 63.2953 413.46 64.6126 413.46ZM87.5934 429.636C86.5962 429.636 85.6606 429.556 84.7866 429.396C83.9248 429.249 83.2108 429.058 82.6445 428.824L84.4173 422.952C85.3406 423.235 86.1715 423.389 86.9102 423.413C87.6611 423.438 88.3074 423.266 88.8491 422.896C89.4031 422.527 89.8524 421.899 90.1971 421.013L90.6587 419.812L80.484 390.636H88.7567L94.6289 411.466H94.9244L100.852 390.636H109.18L98.1559 422.065C97.6265 423.592 96.9064 424.921 95.9954 426.054C95.0967 427.199 93.958 428.079 92.5792 428.695C91.2004 429.322 89.5385 429.636 87.5934 429.636ZM120.532 419.535C118.722 419.535 117.11 419.222 115.694 418.594C114.278 417.954 113.158 417.012 112.333 415.768C111.521 414.513 111.114 412.949 111.114 411.078C111.114 409.502 111.404 408.179 111.982 407.108C112.561 406.037 113.349 405.175 114.346 404.523C115.343 403.87 116.476 403.378 117.744 403.045C119.024 402.713 120.366 402.479 121.769 402.344C123.419 402.171 124.748 402.011 125.758 401.864C126.767 401.704 127.5 401.47 127.955 401.162C128.411 400.854 128.638 400.399 128.638 399.795V399.685C128.638 398.515 128.269 397.61 127.531 396.97C126.804 396.33 125.77 396.01 124.428 396.01C123.013 396.01 121.886 396.324 121.049 396.952C120.212 397.567 119.658 398.343 119.387 399.278L112.112 398.687C112.481 396.964 113.207 395.474 114.29 394.219C115.374 392.951 116.771 391.978 118.482 391.301C120.206 390.612 122.2 390.267 124.465 390.267C126.041 390.267 127.549 390.452 128.989 390.821C130.442 391.19 131.728 391.763 132.849 392.538C133.981 393.314 134.874 394.311 135.526 395.53C136.179 396.736 136.505 398.183 136.505 399.869V419H129.045V415.067H128.823C128.368 415.953 127.758 416.735 126.995 417.412C126.232 418.077 125.315 418.6 124.244 418.982C123.173 419.351 121.935 419.535 120.532 419.535ZM122.785 414.107C123.942 414.107 124.964 413.879 125.85 413.423C126.737 412.955 127.432 412.328 127.937 411.54C128.442 410.752 128.694 409.859 128.694 408.862V405.852C128.448 406.012 128.109 406.16 127.678 406.295C127.26 406.419 126.786 406.535 126.256 406.646C125.727 406.745 125.198 406.837 124.668 406.923C124.139 406.997 123.659 407.065 123.228 407.126C122.305 407.262 121.498 407.477 120.809 407.773C120.12 408.068 119.584 408.468 119.202 408.973C118.821 409.465 118.63 410.081 118.63 410.82C118.63 411.891 119.018 412.709 119.793 413.276C120.581 413.83 121.578 414.107 122.785 414.107ZM142.608 419V390.636H150.105V395.641H150.438C151.028 393.979 152.013 392.668 153.392 391.707C154.771 390.747 156.42 390.267 158.341 390.267C160.286 390.267 161.942 390.753 163.308 391.726C164.675 392.686 165.586 393.991 166.041 395.641H166.337C166.915 394.016 167.962 392.717 169.476 391.744C171.002 390.759 172.806 390.267 174.886 390.267C177.533 390.267 179.681 391.11 181.331 392.797C182.993 394.471 183.824 396.847 183.824 399.925V419H175.976V401.476C175.976 399.9 175.557 398.718 174.72 397.93C173.883 397.143 172.837 396.749 171.581 396.749C170.153 396.749 169.039 397.204 168.239 398.115C167.438 399.014 167.038 400.202 167.038 401.679V419H159.412V401.31C159.412 399.919 159.012 398.811 158.212 397.986C157.424 397.161 156.384 396.749 155.091 396.749C154.217 396.749 153.429 396.97 152.727 397.413C152.038 397.844 151.49 398.454 151.084 399.241C150.678 400.017 150.474 400.928 150.474 401.974V419H142.608ZM198.126 419.535C196.316 419.535 194.703 419.222 193.288 418.594C191.872 417.954 190.752 417.012 189.927 415.768C189.114 414.513 188.708 412.949 188.708 411.078C188.708 409.502 188.997 408.179 189.576 407.108C190.155 406.037 190.942 405.175 191.94 404.523C192.937 403.87 194.069 403.378 195.337 403.045C196.618 402.713 197.96 402.479 199.363 402.344C201.013 402.171 202.342 402.011 203.352 401.864C204.361 401.704 205.094 401.47 205.549 401.162C206.004 400.854 206.232 400.399 206.232 399.795V399.685C206.232 398.515 205.863 397.61 205.124 396.97C204.398 396.33 203.364 396.01 202.022 396.01C200.606 396.01 199.48 396.324 198.643 396.952C197.806 397.567 197.252 398.343 196.981 399.278L189.705 398.687C190.075 396.964 190.801 395.474 191.884 394.219C192.968 392.951 194.365 391.978 196.076 391.301C197.799 390.612 199.794 390.267 202.059 390.267C203.635 390.267 205.143 390.452 206.583 390.821C208.036 391.19 209.322 391.763 210.442 392.538C211.575 393.314 212.468 394.311 213.12 395.53C213.772 396.736 214.099 398.183 214.099 399.869V419H206.638V415.067H206.417C205.961 415.953 205.352 416.735 204.589 417.412C203.826 418.077 202.908 418.6 201.837 418.982C200.766 419.351 199.529 419.535 198.126 419.535ZM200.379 414.107C201.536 414.107 202.558 413.879 203.444 413.423C204.33 412.955 205.026 412.328 205.531 411.54C206.035 410.752 206.288 409.859 206.288 408.862V405.852C206.041 406.012 205.703 406.16 205.272 406.295C204.853 406.419 204.379 406.535 203.85 406.646C203.321 406.745 202.791 406.837 202.262 406.923C201.733 406.997 201.253 407.065 200.822 407.126C199.898 407.262 199.092 407.477 198.403 407.773C197.713 408.068 197.178 408.468 196.796 408.973C196.415 409.465 196.224 410.081 196.224 410.82C196.224 411.891 196.612 412.709 197.387 413.276C198.175 413.83 199.172 414.107 200.379 414.107ZM232.385 419V381.182H247.305C250.173 381.182 252.617 381.73 254.636 382.825C256.655 383.909 258.194 385.417 259.252 387.349C260.324 389.27 260.859 391.486 260.859 393.997C260.859 396.509 260.317 398.724 259.234 400.645C258.151 402.565 256.581 404.061 254.525 405.132C252.482 406.203 250.007 406.739 247.102 406.739H237.592V400.331H245.809C247.348 400.331 248.616 400.066 249.613 399.537C250.623 398.995 251.374 398.25 251.866 397.303C252.371 396.342 252.623 395.241 252.623 393.997C252.623 392.741 252.371 391.646 251.866 390.71C251.374 389.762 250.623 389.03 249.613 388.513C248.604 387.983 247.324 387.719 245.772 387.719H240.38V419H232.385ZM265.905 419V390.636H273.531V395.585H273.827C274.344 393.825 275.212 392.495 276.43 391.597C277.649 390.686 279.053 390.23 280.641 390.23C281.035 390.23 281.459 390.255 281.915 390.304C282.37 390.353 282.77 390.421 283.115 390.507V397.487C282.746 397.376 282.235 397.278 281.582 397.192C280.93 397.106 280.333 397.062 279.791 397.062C278.634 397.062 277.6 397.315 276.689 397.82C275.79 398.312 275.076 399.001 274.547 399.888C274.03 400.774 273.771 401.796 273.771 402.953V419H265.905ZM298.788 419.554C295.87 419.554 293.359 418.963 291.254 417.781C289.161 416.587 287.548 414.901 286.416 412.722C285.283 410.53 284.717 407.939 284.717 404.947C284.717 402.03 285.283 399.469 286.416 397.266C287.548 395.062 289.143 393.345 291.199 392.114C293.267 390.883 295.692 390.267 298.474 390.267C300.345 390.267 302.087 390.569 303.7 391.172C305.325 391.763 306.741 392.655 307.947 393.849C309.166 395.044 310.114 396.545 310.791 398.355C311.468 400.152 311.806 402.258 311.806 404.67V406.831H287.856V401.956H304.402C304.402 400.823 304.155 399.82 303.663 398.946C303.171 398.072 302.487 397.389 301.613 396.896C300.752 396.392 299.748 396.139 298.603 396.139C297.409 396.139 296.35 396.416 295.427 396.97C294.516 397.512 293.802 398.244 293.285 399.168C292.768 400.079 292.503 401.094 292.491 402.214V406.849C292.491 408.253 292.75 409.465 293.267 410.487C293.796 411.509 294.541 412.297 295.501 412.851C296.461 413.405 297.6 413.682 298.917 413.682C299.791 413.682 300.592 413.559 301.318 413.312C302.044 413.066 302.666 412.697 303.183 412.205C303.7 411.712 304.094 411.109 304.365 410.395L311.64 410.875C311.271 412.623 310.514 414.15 309.369 415.455C308.236 416.747 306.771 417.757 304.974 418.483C303.189 419.197 301.127 419.554 298.788 419.554ZM332.193 390.636V396.545H314.687V390.636H332.193ZM318.694 419V388.587C318.694 386.531 319.094 384.826 319.895 383.472C320.707 382.117 321.815 381.102 323.218 380.425C324.622 379.748 326.216 379.409 328.001 379.409C329.208 379.409 330.309 379.501 331.306 379.686C332.316 379.871 333.067 380.037 333.559 380.185L332.156 386.094C331.848 385.995 331.467 385.903 331.011 385.817C330.568 385.731 330.112 385.687 329.645 385.687C328.487 385.687 327.681 385.958 327.225 386.5C326.77 387.029 326.542 387.774 326.542 388.734V419H318.694ZM348.909 419.554C345.991 419.554 343.48 418.963 341.375 417.781C339.282 416.587 337.67 414.901 336.537 412.722C335.404 410.53 334.838 407.939 334.838 404.947C334.838 402.03 335.404 399.469 336.537 397.266C337.67 395.062 339.264 393.345 341.32 392.114C343.388 390.883 345.813 390.267 348.595 390.267C350.466 390.267 352.208 390.569 353.821 391.172C355.446 391.763 356.862 392.655 358.068 393.849C359.287 395.044 360.235 396.545 360.912 398.355C361.589 400.152 361.928 402.258 361.928 404.67V406.831H337.977V401.956H354.523C354.523 400.823 354.277 399.82 353.784 398.946C353.292 398.072 352.608 397.389 351.734 396.896C350.873 396.392 349.869 396.139 348.724 396.139C347.53 396.139 346.472 396.416 345.548 396.97C344.637 397.512 343.923 398.244 343.406 399.168C342.889 400.079 342.625 401.094 342.612 402.214V406.849C342.612 408.253 342.871 409.465 343.388 410.487C343.917 411.509 344.662 412.297 345.622 412.851C346.582 413.405 347.721 413.682 349.038 413.682C349.912 413.682 350.713 413.559 351.439 413.312C352.165 413.066 352.787 412.697 353.304 412.205C353.821 411.712 354.215 411.109 354.486 410.395L361.761 410.875C361.392 412.623 360.635 414.15 359.49 415.455C358.357 416.747 356.893 417.757 355.095 418.483C353.31 419.197 351.248 419.554 348.909 419.554ZM379.876 419.554C376.971 419.554 374.472 418.938 372.379 417.707C370.299 416.464 368.698 414.741 367.578 412.537C366.47 410.333 365.916 407.797 365.916 404.929C365.916 402.024 366.476 399.475 367.597 397.284C368.729 395.08 370.336 393.363 372.416 392.132C374.497 390.889 376.971 390.267 379.839 390.267C382.314 390.267 384.481 390.716 386.339 391.615C388.198 392.514 389.67 393.776 390.753 395.401C391.836 397.026 392.433 398.934 392.544 401.125H385.121C384.911 399.709 384.357 398.571 383.459 397.709C382.572 396.835 381.409 396.398 379.969 396.398C378.75 396.398 377.685 396.73 376.774 397.395C375.875 398.047 375.174 399.001 374.669 400.257C374.164 401.513 373.912 403.033 373.912 404.818C373.912 406.628 374.158 408.167 374.651 409.435C375.155 410.703 375.863 411.669 376.774 412.334C377.685 412.999 378.75 413.331 379.969 413.331C380.867 413.331 381.674 413.146 382.388 412.777C383.114 412.408 383.711 411.872 384.179 411.17C384.659 410.456 384.973 409.601 385.121 408.604H392.544C392.421 410.77 391.83 412.678 390.771 414.328C389.725 415.965 388.278 417.246 386.432 418.169C384.585 419.092 382.4 419.554 379.876 419.554ZM412.667 390.636V396.545H395.586V390.636H412.667ZM399.464 383.841H407.331V410.284C407.331 411.01 407.441 411.577 407.663 411.983C407.885 412.377 408.192 412.654 408.586 412.814C408.993 412.974 409.46 413.054 409.99 413.054C410.359 413.054 410.728 413.023 411.098 412.962C411.467 412.888 411.75 412.832 411.947 412.795L413.184 418.649C412.79 418.772 412.236 418.914 411.522 419.074C410.808 419.246 409.94 419.351 408.919 419.388C407.023 419.462 405.361 419.209 403.933 418.631C402.517 418.052 401.415 417.153 400.627 415.935C399.84 414.716 399.452 413.177 399.464 411.318V383.841ZM435.98 406.923V390.636H443.847V419H436.294V413.848H435.999C435.359 415.51 434.294 416.846 432.804 417.855C431.327 418.865 429.524 419.369 427.394 419.369C425.498 419.369 423.83 418.938 422.39 418.077C420.949 417.215 419.823 415.99 419.01 414.402C418.21 412.814 417.804 410.912 417.792 408.696V390.636H425.658V407.293C425.67 408.967 426.12 410.29 427.006 411.263C427.892 412.235 429.08 412.722 430.57 412.722C431.518 412.722 432.404 412.506 433.229 412.075C434.054 411.632 434.719 410.98 435.223 410.118C435.74 409.256 435.993 408.191 435.98 406.923ZM450.139 419V390.636H457.766V395.585H458.061C458.578 393.825 459.446 392.495 460.665 391.597C461.884 390.686 463.287 390.23 464.875 390.23C465.269 390.23 465.694 390.255 466.149 390.304C466.605 390.353 467.005 390.421 467.349 390.507V397.487C466.98 397.376 466.469 397.278 465.817 397.192C465.164 397.106 464.567 397.062 464.026 397.062C462.868 397.062 461.834 397.315 460.923 397.82C460.025 398.312 459.311 399.001 458.781 399.888C458.264 400.774 458.006 401.796 458.006 402.953V419H450.139ZM483.022 419.554C480.105 419.554 477.593 418.963 475.488 417.781C473.395 416.587 471.783 414.901 470.65 412.722C469.518 410.53 468.951 407.939 468.951 404.947C468.951 402.03 469.518 399.469 470.65 397.266C471.783 395.062 473.377 393.345 475.433 392.114C477.501 390.883 479.926 390.267 482.708 390.267C484.58 390.267 486.322 390.569 487.934 391.172C489.559 391.763 490.975 392.655 492.181 393.849C493.4 395.044 494.348 396.545 495.025 398.355C495.702 400.152 496.041 402.258 496.041 404.67V406.831H472.091V401.956H488.636C488.636 400.823 488.39 399.82 487.897 398.946C487.405 398.072 486.722 397.389 485.848 396.896C484.986 396.392 483.983 396.139 482.838 396.139C481.644 396.139 480.585 396.416 479.662 396.97C478.751 397.512 478.037 398.244 477.52 399.168C477.002 400.079 476.738 401.094 476.725 402.214V406.849C476.725 408.253 476.984 409.465 477.501 410.487C478.03 411.509 478.775 412.297 479.735 412.851C480.696 413.405 481.834 413.682 483.152 413.682C484.026 413.682 484.826 413.559 485.552 413.312C486.279 413.066 486.9 412.697 487.417 412.205C487.934 411.712 488.328 411.109 488.599 410.395L495.875 410.875C495.505 412.623 494.748 414.15 493.603 415.455C492.471 416.747 491.006 417.757 489.208 418.483C487.423 419.197 485.361 419.554 483.022 419.554Z" fill="#1A9431"/>
</svg>
